<svg width="244" height="69" viewBox="0 0 244 69" fill="none" xmlns="http://www.w3.org/2000/svg">
<g clip-path="url(#clip0_3_97)">
<mask id="mask0_3_97" style="mask-type:luminance" maskUnits="userSpaceOnUse" x="-1633" y="-45" width="1940" height="2363">
<path d="M-1632.72 -44.6807H306.391V2317.62H-1632.72V-44.6807Z" fill="white"/>
</mask>
<g mask="url(#mask0_3_97)">
<path d="M226.569 66.2087H16.7313C8.53534 66.2087 1.89001 59.5634 1.89001 51.3674V16.7314C1.89001 8.53407 8.53534 1.89007 16.7313 1.89007H226.569C234.766 1.89007 241.41 8.53407 241.41 16.7314V51.3674C241.41 59.5634 234.766 66.2087 226.569 66.2087Z" stroke="white" stroke-width="3.78" stroke-miterlimit="10"/>
</g>
<path d="M74.0223 31.2944L72.0223 28.6069C71.4286 28.7202 70.8505 28.7788 70.288 28.7788C68.8192 28.7788 67.4755 28.4429 66.2567 27.7632C65.038 27.0757 64.0692 26.1226 63.3505 24.9038C62.6317 23.6851 62.2723 22.3101 62.2723 20.7788C62.2723 19.2593 62.6317 17.8882 63.3505 16.6694C64.0692 15.4507 65.038 14.5054 66.2567 13.8257C67.4755 13.1499 68.8192 12.8101 70.288 12.8101C71.7567 12.8101 73.1005 13.1499 74.3192 13.8257C75.5458 14.5054 76.5106 15.4507 77.2098 16.6694C77.9169 17.8882 78.2723 19.2593 78.2723 20.7788C78.2723 22.1147 77.9989 23.3335 77.4598 24.4351C76.9169 25.5405 76.1669 26.4585 75.2098 27.1851L78.6317 31.2944H74.0223ZM66.163 20.7788C66.163 22.1538 66.5302 23.2554 67.2723 24.0757C68.0223 24.8999 69.0262 25.3101 70.288 25.3101C71.538 25.3101 72.5302 24.8999 73.2723 24.0757C74.0223 23.2437 74.3973 22.146 74.3973 20.7788C74.3973 19.4038 74.0223 18.3062 73.2723 17.4819C72.5302 16.6616 71.538 16.2476 70.288 16.2476C69.0262 16.2476 68.0223 16.6538 67.2723 17.4663C66.5302 18.2788 66.163 19.3843 66.163 20.7788ZM84.1591 13.0288V22.3569C84.1591 23.2944 84.3856 24.0132 84.8466 24.5132C85.3036 25.0132 85.9794 25.2632 86.8778 25.2632C87.7606 25.2632 88.4403 25.0132 88.9091 24.5132C89.3856 24.0132 89.6278 23.2944 89.6278 22.3569V13.0288H93.4247V22.3413C93.4247 23.728 93.1278 24.9038 92.5341 25.8726C91.9403 26.8335 91.1434 27.5562 90.1434 28.0444C89.1434 28.5366 88.0262 28.7788 86.7997 28.7788C85.5692 28.7788 84.4716 28.5405 83.5028 28.0601C82.5341 27.5835 81.7684 26.8569 81.2059 25.8882C80.6434 24.9116 80.3622 23.728 80.3622 22.3413V13.0288H84.1591ZM99.8856 16.0757V19.2163H104.979V22.1538H99.8856V25.5757H105.651V28.6226H96.0887V13.0288H105.651V16.0757H99.8856ZM116.061 28.6226L112.827 22.7319H111.905V28.6226H108.108V13.0288H114.483C115.71 13.0288 116.757 13.2437 117.624 13.6694C118.499 14.0991 119.147 14.6851 119.577 15.4351C120.003 16.1851 120.218 17.021 120.218 17.9351C120.218 18.978 119.925 19.9038 119.343 20.7163C118.757 21.5288 117.893 22.1069 116.749 22.4507L120.358 28.6226H116.061ZM111.905 20.0444H114.265C114.96 20.0444 115.483 19.8804 115.827 19.5444C116.179 19.2007 116.358 18.7163 116.358 18.0913C116.358 17.4976 116.179 17.0366 115.827 16.7007C115.483 16.3569 114.96 16.1851 114.265 16.1851H111.905V20.0444ZM129.972 28.7788C128.503 28.7788 127.159 28.4429 125.94 27.7632C124.722 27.0757 123.753 26.1226 123.034 24.9038C122.315 23.6851 121.956 22.3101 121.956 20.7788C121.956 19.2593 122.315 17.8882 123.034 16.6694C123.753 15.4507 124.722 14.5054 125.94 13.8257C127.159 13.1499 128.503 12.8101 129.972 12.8101C131.44 12.8101 132.784 13.1499 134.003 13.8257C135.229 14.5054 136.194 15.4507 136.893 16.6694C137.6 17.8882 137.956 19.2593 137.956 20.7788C137.956 22.3101 137.597 23.6851 136.878 24.9038C136.167 26.1226 135.206 27.0757 133.987 27.7632C132.776 28.4429 131.44 28.7788 129.972 28.7788ZM129.972 25.3101C131.222 25.3101 132.214 24.8999 132.956 24.0757C133.706 23.2437 134.081 22.146 134.081 20.7788C134.081 19.4038 133.706 18.3062 132.956 17.4819C132.214 16.6616 131.222 16.2476 129.972 16.2476C128.71 16.2476 127.706 16.6538 126.956 17.4663C126.214 18.2788 125.847 19.3843 125.847 20.7788C125.847 22.1538 126.214 23.2554 126.956 24.0757C127.706 24.8999 128.71 25.3101 129.972 25.3101ZM150.413 28.7788C149.276 28.7788 148.257 28.5991 147.35 28.2319C146.444 27.8569 145.718 27.3062 145.179 26.5757C144.647 25.8491 144.366 24.9741 144.335 23.9507H148.382C148.433 24.5366 148.632 24.978 148.975 25.2788C149.319 25.5835 149.761 25.7319 150.304 25.7319C150.866 25.7319 151.307 25.603 151.632 25.3413C151.964 25.0835 152.132 24.7241 152.132 24.2632C152.132 23.8804 151.999 23.5601 151.741 23.3101C151.479 23.0601 151.163 22.8569 150.788 22.7007C150.413 22.5366 149.874 22.3491 149.179 22.1382C148.167 21.8257 147.343 21.5132 146.71 21.2007C146.073 20.8882 145.526 20.4312 145.069 19.8257C144.608 19.2241 144.382 18.4312 144.382 17.4507C144.382 15.9937 144.901 14.8569 145.944 14.0444C146.995 13.2241 148.37 12.8101 150.069 12.8101C151.788 12.8101 153.167 13.2241 154.21 14.0444C155.261 14.8569 155.827 15.9976 155.913 17.4663H151.804C151.772 16.9663 151.585 16.5718 151.241 16.2788C150.897 15.9897 150.46 15.8413 149.929 15.8413C149.468 15.8413 149.1 15.9663 148.819 16.2163C148.538 16.4585 148.397 16.8062 148.397 17.2632C148.397 17.7749 148.632 18.1694 149.1 18.4507C149.577 18.7319 150.323 19.0366 151.335 19.3569C152.335 19.7007 153.147 20.0288 153.772 20.3413C154.405 20.646 154.952 21.0913 155.413 21.6851C155.87 22.2788 156.1 23.0444 156.1 23.9819C156.1 24.8687 155.874 25.6772 155.429 26.4038C154.979 27.1226 154.323 27.7007 153.46 28.1382C152.604 28.5679 151.589 28.7788 150.413 28.7788ZM162.233 16.0757V19.2163H167.327V22.1538H162.233V25.5757H167.999V28.6226H158.436V13.0288H167.999V16.0757H162.233ZM178.413 28.6226L175.179 22.7319H174.257V28.6226H170.46V13.0288H176.835C178.061 13.0288 179.108 13.2437 179.975 13.6694C180.85 14.0991 181.499 14.6851 181.929 15.4351C182.354 16.1851 182.569 17.021 182.569 17.9351C182.569 18.978 182.276 19.9038 181.694 20.7163C181.108 21.5288 180.245 22.1069 179.1 22.4507L182.71 28.6226H178.413ZM174.257 20.0444H176.616C177.311 20.0444 177.835 19.8804 178.179 19.5444C178.53 19.2007 178.71 18.7163 178.71 18.0913C178.71 17.4976 178.53 17.0366 178.179 16.7007C177.835 16.3569 177.311 16.1851 176.616 16.1851H174.257V20.0444ZM58.0223 50.8413L54.788 44.9507H53.8661V50.8413H50.0692V35.2476H56.4442C57.6708 35.2476 58.7177 35.4624 59.5848 35.8882C60.4598 36.3179 61.1083 36.9038 61.538 37.6538C61.9637 38.4038 62.1786 39.2397 62.1786 40.1538C62.1786 41.1968 61.8856 42.1226 61.3036 42.9351C60.7177 43.7476 59.8544 44.3257 58.7098 44.6694L62.3192 50.8413H58.0223ZM53.8661 42.2632H56.2255C56.9208 42.2632 57.4442 42.0991 57.788 41.7632C58.1395 41.4194 58.3192 40.9351 58.3192 40.3101C58.3192 39.7163 58.1395 39.2554 57.788 38.9194C57.4442 38.5757 56.9208 38.4038 56.2255 38.4038H53.8661V42.2632ZM68.3544 38.2944V41.4351H73.4481V44.3726H68.3544V47.7944H74.12V50.8413H64.5575V35.2476H74.12V38.2944H68.3544ZM91.2216 35.2476L85.6903 50.8413H80.9403L75.4091 35.2476H79.4559L83.3153 47.0132L87.2059 35.2476H91.2216ZM96.5966 38.2944V41.4351H101.69V44.3726H96.5966V47.7944H102.362V50.8413H92.7997V35.2476H102.362V38.2944H96.5966ZM118.772 50.8413H114.975L108.616 41.2163V50.8413H104.819V35.2476H108.616L114.975 44.9038V35.2476H118.772V50.8413ZM127.374 35.2476C129.018 35.2476 130.456 35.5757 131.686 36.2319C132.913 36.8804 133.862 37.7905 134.53 38.9663C135.206 40.146 135.546 41.5054 135.546 43.0444C135.546 44.5679 135.206 45.9194 134.53 47.1069C133.862 48.2944 132.909 49.2163 131.671 49.8726C130.44 50.521 129.007 50.8413 127.374 50.8413H121.53V35.2476H127.374ZM127.14 47.5601C128.565 47.5601 129.679 47.1694 130.483 46.3882C131.284 45.5991 131.686 44.4819 131.686 43.0444C131.686 41.6069 131.284 40.4897 130.483 39.6851C129.679 38.8843 128.565 38.4819 127.14 38.4819H125.327V47.5601H127.14ZM141.479 38.2944V41.4351H146.573V44.3726H141.479V47.7944H147.245V50.8413H137.682V35.2476H147.245V38.2944H141.479ZM155.55 35.2476C157.194 35.2476 158.632 35.5757 159.862 36.2319C161.089 36.8804 162.038 37.7905 162.706 38.9663C163.382 40.146 163.722 41.5054 163.722 43.0444C163.722 44.5679 163.382 45.9194 162.706 47.1069C162.038 48.2944 161.085 49.2163 159.847 49.8726C158.616 50.521 157.182 50.8413 155.55 50.8413H149.706V35.2476H155.55ZM155.315 47.5601C156.741 47.5601 157.854 47.1694 158.659 46.3882C159.46 45.5991 159.862 44.4819 159.862 43.0444C159.862 41.6069 159.46 40.4897 158.659 39.6851C157.854 38.8843 156.741 38.4819 155.315 38.4819H153.503V47.5601H155.315ZM173.233 50.9976C171.765 50.9976 170.421 50.6616 169.202 49.9819C167.983 49.2944 167.015 48.3413 166.296 47.1226C165.577 45.9038 165.218 44.5288 165.218 42.9976C165.218 41.478 165.577 40.1069 166.296 38.8882C167.015 37.6694 167.983 36.7241 169.202 36.0444C170.421 35.3687 171.765 35.0288 173.233 35.0288C174.702 35.0288 176.046 35.3687 177.265 36.0444C178.491 36.7241 179.456 37.6694 180.155 38.8882C180.862 40.1069 181.218 41.478 181.218 42.9976C181.218 44.5288 180.858 45.9038 180.14 47.1226C179.429 48.3413 178.468 49.2944 177.249 49.9819C176.038 50.6616 174.702 50.9976 173.233 50.9976ZM173.233 47.5288C174.483 47.5288 175.475 47.1187 176.218 46.2944C176.968 45.4624 177.343 44.3647 177.343 42.9976C177.343 41.6226 176.968 40.5249 176.218 39.7007C175.475 38.8804 174.483 38.4663 173.233 38.4663C171.972 38.4663 170.968 38.8726 170.218 39.6851C169.475 40.4976 169.108 41.603 169.108 42.9976C169.108 44.3726 169.475 45.4741 170.218 46.2944C170.968 47.1187 171.972 47.5288 173.233 47.5288ZM191.276 50.8413L188.042 44.9507H187.12V50.8413H183.323V35.2476H189.698C190.925 35.2476 191.972 35.4624 192.839 35.8882C193.714 36.3179 194.362 36.9038 194.792 37.6538C195.218 38.4038 195.432 39.2397 195.432 40.1538C195.432 41.1968 195.14 42.1226 194.557 42.9351C193.972 43.7476 193.108 44.3257 191.964 44.6694L195.573 50.8413H191.276ZM187.12 42.2632H189.479C190.175 42.2632 190.698 42.0991 191.042 41.7632C191.393 41.4194 191.573 40.9351 191.573 40.3101C191.573 39.7163 191.393 39.2554 191.042 38.9194C190.698 38.5757 190.175 38.4038 189.479 38.4038H187.12V42.2632Z" fill="white"/>
</g>
<defs>
<clipPath id="clip0_3_97">
<rect width="243.3" height="68.0987" fill="white"/>
</clipPath>
</defs>
</svg>
