<svg width="40" height="39" viewBox="0 0 40 39" fill="none" xmlns="http://www.w3.org/2000/svg">
<g clip-path="url(#clip0_6_97)">
<mask id="mask0_6_97" style="mask-type:luminance" maskUnits="userSpaceOnUse" x="-276" y="-2151" width="1940" height="2363">
<path d="M-275.381 -2150.98H1663.73V211.321H-275.381V-2150.98Z" fill="white"/>
</mask>
<g mask="url(#mask0_6_97)">
<path d="M35.6893 27.9587C35.6893 31.9454 32.4453 35.1894 28.4586 35.1894H11.1559C7.16927 35.1894 3.92661 31.9454 3.92661 27.9587V10.6561C3.92661 6.66941 7.16927 3.42675 11.1559 3.42675H28.4586C32.4453 3.42675 35.6893 6.66941 35.6893 10.6561V27.9587ZM28.4586 8.11387e-05H11.1559C5.27994 8.11387e-05 0.499939 4.78008 0.499939 10.6561V27.9587C0.499939 33.8347 5.27994 38.6147 11.1559 38.6147H28.4586C34.3346 38.6147 39.1146 33.8347 39.1146 27.9587V10.6561C39.1159 4.78008 34.3346 8.11387e-05 28.4586 8.11387e-05Z" fill="white"/>
</g>
<mask id="mask1_6_97" style="mask-type:luminance" maskUnits="userSpaceOnUse" x="-276" y="-2151" width="1940" height="2363">
<path d="M-275.381 -2150.98H1663.73V211.321H-275.381V-2150.98Z" fill="white"/>
</mask>
<g mask="url(#mask1_6_97)">
<path d="M19.8077 25.8316C16.2104 25.8316 13.2837 22.905 13.2837 19.3076C13.2837 15.7103 16.2104 12.7836 19.8077 12.7836C23.4051 12.7836 26.3317 15.7103 26.3317 19.3076C26.3317 22.905 23.4051 25.8316 19.8077 25.8316ZM19.8077 9.3583C14.3211 9.3583 9.85706 13.8223 9.85706 19.309C9.85706 24.7943 14.3211 29.2583 19.8077 29.2583C25.2944 29.2583 29.7584 24.7943 29.7584 19.309C29.7584 13.8223 25.2944 9.3583 19.8077 9.3583Z" fill="white"/>
</g>
<mask id="mask2_6_97" style="mask-type:luminance" maskUnits="userSpaceOnUse" x="-276" y="-2151" width="1940" height="2363">
<path d="M-275.381 -2150.98H1663.73V211.321H-275.381V-2150.98Z" fill="white"/>
</mask>
<g mask="url(#mask2_6_97)">
<path d="M30.1751 6.45318C29.5151 6.45318 28.8671 6.71985 28.4005 7.18918C27.9325 7.65452 27.6631 8.30385 27.6631 8.96518C27.6631 9.62652 27.9325 10.2745 28.4005 10.7425C28.8658 11.2092 29.5151 11.4785 30.1751 11.4785C30.8378 11.4785 31.4845 11.2092 31.9525 10.7425C32.4205 10.2745 32.6871 9.62518 32.6871 8.96518C32.6871 8.30385 32.4205 7.65452 31.9525 7.18918C31.4858 6.71985 30.8378 6.45318 30.1751 6.45318Z" fill="white"/>
</g>
</g>
<defs>
<clipPath id="clip0_6_97">
<rect width="38.6147" height="38.6147" fill="white" transform="translate(0.5)"/>
</clipPath>
</defs>
</svg>
