<svg width="186" height="56" viewBox="0 0 186 56" fill="none" xmlns="http://www.w3.org/2000/svg">
<g clip-path="url(#clip0_3_2)">
<mask id="mask0_3_2" style="mask-type:luminance" maskUnits="userSpaceOnUse" x="-8" y="-3" width="201" height="62">
<path d="M-7.50783 58.07H192.74V-2.26204H-7.50783V58.07Z" fill="white"/>
</mask>
<g mask="url(#mask0_3_2)">
<path d="M72.1042 30.8881C75.5842 30.8881 76.9495 28.6455 76.9495 22.8721V21.3775C76.9495 15.1148 75.3522 13.8255 71.7428 13.8255H71.1242V30.8881H72.1042ZM71.6922 31.3788H64.3975V30.8881H66.0988V13.8255H64.3975V13.3348H72.3628C78.7282 13.3348 82.2602 15.6295 82.2602 22.0481C82.2602 29.3161 77.8508 31.3788 71.6922 31.3788Z" fill="white"/>
</g>
<mask id="mask1_3_2" style="mask-type:luminance" maskUnits="userSpaceOnUse" x="-8" y="-3" width="201" height="62">
<path d="M-7.50781 58.07H192.74V-2.26204H-7.50781V58.07Z" fill="white"/>
</mask>
<g mask="url(#mask1_3_2)">
<path d="M85.5634 17.2116C87.5701 15.9049 88.3901 14.6276 88.3901 13.5036C88.3901 12.7729 87.9341 12.4689 87.5701 12.4089L86.2927 13.5943C85.5941 13.3516 84.6821 12.6209 84.6821 11.4663C84.6821 10.1289 85.7767 9.24627 87.1141 9.24627C88.7554 9.24627 89.8501 10.3116 89.8501 12.1649C89.8501 14.4756 88.0861 16.2383 85.8367 17.6369L85.5634 17.2116Z" fill="white"/>
</g>
<mask id="mask2_3_2" style="mask-type:luminance" maskUnits="userSpaceOnUse" x="-8" y="-3" width="201" height="62">
<path d="M-7.50784 58.07H192.74V-2.26204H-7.50784V58.07Z" fill="white"/>
</mask>
<g mask="url(#mask2_3_2)">
<path d="M97.5312 21.2743V23.3103C97.5312 28.0529 98.8979 31.1209 101.707 31.1209C103.795 31.1209 105.47 28.9543 106.914 25.6049H107.378L107.197 31.3529H106.914C106.733 31.0169 106.63 30.8369 106.218 30.8369C105.341 30.8369 103.923 31.6356 101.089 31.6356C95.6246 31.6356 92.2739 28.7489 92.2739 22.5889C92.2739 16.3516 95.8819 13.0516 101.166 13.0516C103.846 13.0516 105.083 13.8503 105.986 13.8503C106.398 13.8503 106.501 13.6703 106.682 13.3356H106.965L107.171 18.9289H106.707C105.29 15.7583 103.743 13.5676 101.526 13.5676C98.9232 13.5676 97.5312 15.9383 97.5312 21.2743Z" fill="white"/>
</g>
<mask id="mask3_3_2" style="mask-type:luminance" maskUnits="userSpaceOnUse" x="-8" y="-3" width="201" height="62">
<path d="M-7.50781 58.07H192.74V-2.26204H-7.50781V58.07Z" fill="white"/>
</mask>
<g mask="url(#mask3_3_2)">
<path d="M117.324 24.1093C117.324 21.3253 117.247 19.316 115.803 19.316C114.231 19.316 114.154 21.3253 114.154 24.2387V26.248C114.154 29.2387 114.206 31.172 115.778 31.172C117.247 31.172 117.324 29.6507 117.324 26.3V24.1093ZM115.88 18.852C120.211 18.852 122.272 20.888 122.272 25.0627C122.272 29.2893 120.315 31.636 115.727 31.636C111.396 31.636 109.206 29.316 109.206 25.2947C109.206 21.068 111.731 18.852 115.88 18.852Z" fill="white"/>
</g>
<mask id="mask4_3_2" style="mask-type:luminance" maskUnits="userSpaceOnUse" x="-8" y="-3" width="201" height="62">
<path d="M-7.50783 58.07H192.74V-2.26204H-7.50783V58.07Z" fill="white"/>
</mask>
<g mask="url(#mask4_3_2)">
<path d="M129.205 24.0064V30.9144H131.035V31.3784H122.993V30.9144H124.411V19.5731H122.993V19.1091H129.205V21.5837C129.669 19.7531 131.111 18.8517 132.658 18.8517C134.179 18.8517 135.39 19.6504 135.39 21.6091C135.39 23.0784 134.618 24.0584 133.226 24.0584C131.499 24.0584 130.674 22.9757 131.215 21.1451H132.143C132.658 20.0891 132.143 19.8304 131.602 19.8304C130.365 19.8304 129.205 21.6864 129.205 24.0064Z" fill="white"/>
</g>
<mask id="mask5_3_2" style="mask-type:luminance" maskUnits="userSpaceOnUse" x="-8" y="-3" width="201" height="62">
<path d="M-7.50781 58.07H192.74V-2.26204H-7.50781V58.07Z" fill="white"/>
</mask>
<g mask="url(#mask5_3_2)">
<path d="M137.039 19.5731H135.621V19.1091H137.039V15.7851L141.832 14.5984V19.1091H145.183V19.5731H141.832V28.2597C141.832 29.7797 142.064 30.6037 142.967 30.6037C144.204 30.6037 144.977 29.4704 145.209 27.7171L145.648 27.7691C145.415 29.7797 144.565 31.6357 141.42 31.6357C138.868 31.6357 137.039 30.8891 137.039 27.6917V19.5731Z" fill="white"/>
</g>
<mask id="mask6_3_2" style="mask-type:luminance" maskUnits="userSpaceOnUse" x="-8" y="-3" width="201" height="62">
<path d="M-7.50781 58.07H192.74V-2.26204H-7.50781V58.07Z" fill="white"/>
</mask>
<g mask="url(#mask6_3_2)">
<path d="M152.116 12.0467V21.48C152.553 20.192 153.405 18.852 155.956 18.852C158.353 18.852 159.952 20.0373 159.952 23.156V30.9133H161.395V31.3773H154.1V30.9133H155.157V22.5373C155.157 20.3467 154.848 20.088 154.204 20.088C153.121 20.088 152.116 21.712 152.116 23.8V30.9133H153.224V31.3773H145.904V30.9133H147.323V12.5107H145.904V12.0467H152.116Z" fill="white"/>
</g>
<mask id="mask7_3_2" style="mask-type:luminance" maskUnits="userSpaceOnUse" x="-8" y="-3" width="201" height="62">
<path d="M-7.50783 58.07H192.74V-2.26204H-7.50783V58.07Z" fill="white"/>
</mask>
<g mask="url(#mask7_3_2)">
<path d="M169.563 24.2125V22.9499C169.563 20.2432 169.358 19.3405 168.299 19.3405C167.398 19.3405 166.909 20.2179 166.909 22.9499V24.2125H169.563ZM168.531 18.8512C172.579 18.8512 174.306 20.8872 174.151 24.7285H166.882V25.7339C166.882 28.7752 167.425 30.8365 169.925 30.8365C171.831 30.8365 173.121 29.6259 173.687 27.6405L174.151 27.7179C173.558 29.9339 172.218 31.6365 168.558 31.6365C163.97 31.6365 161.909 29.0059 161.909 25.2699C161.909 20.8099 164.95 18.8512 168.531 18.8512Z" fill="white"/>
</g>
<mask id="mask8_3_2" style="mask-type:luminance" maskUnits="userSpaceOnUse" x="-8" y="-3" width="201" height="62">
<path d="M-7.50784 58.07H192.74V-2.26204H-7.50784V58.07Z" fill="white"/>
</mask>
<g mask="url(#mask8_3_2)">
<path d="M175.412 27.022H175.722C176.675 30.1673 178.247 31.0687 180.36 31.0687C182.268 31.0687 182.99 30.3727 182.99 29.3927C182.99 28.234 181.727 27.9753 179.768 27.434C177.706 26.8673 175.412 26.0687 175.412 23.2073C175.412 20.578 177.216 18.8513 179.948 18.8513C181.083 18.8513 181.856 19.1353 182.552 19.4447C182.86 19.574 182.964 19.65 183.274 19.65C183.66 19.65 183.84 19.4447 184.175 18.7993H184.459V22.7433H184.15C183.222 20.3727 181.908 19.3927 180.078 19.3927C178.376 19.3927 177.68 20.0887 177.68 20.8873C177.68 22.074 179.227 22.3567 180.927 22.8207C182.964 23.362 185.232 24.1873 185.232 27.2273C185.232 30.1673 183.324 31.6353 180.412 31.6353C179.175 31.6353 178.299 31.378 177.319 30.8887C177.166 30.7847 176.934 30.682 176.83 30.682C176.495 30.682 176.135 30.914 175.722 31.6353H175.412V27.022Z" fill="white"/>
</g>
<mask id="mask9_3_2" style="mask-type:luminance" maskUnits="userSpaceOnUse" x="-8" y="-3" width="201" height="62">
<path d="M-7.50781 58.07H192.74V-2.26204H-7.50781V58.07Z" fill="white"/>
</mask>
<g mask="url(#mask9_3_2)">
<path d="M91.8902 41.4608V42.1848C91.8902 43.8715 92.3768 44.9635 93.3755 44.9635C94.1182 44.9635 94.7142 44.1928 95.2288 43.0008H95.3942L95.3288 45.0461H95.2288C95.1635 44.9275 95.1275 44.8635 94.9808 44.8635C94.6688 44.8635 94.1648 45.1475 93.1555 45.1475C91.2115 45.1475 90.0195 44.1208 90.0195 41.9288C90.0195 39.7101 91.3035 38.5355 93.1835 38.5355C94.1368 38.5355 94.5768 38.8195 94.8982 38.8195C95.0448 38.8195 95.0822 38.7555 95.1462 38.6368H95.2462L95.3195 40.6261H95.1555C94.6502 39.4981 94.1008 38.7181 93.3115 38.7181C92.3862 38.7181 91.8902 39.5635 91.8902 41.4608Z" fill="white"/>
</g>
<mask id="mask10_3_2" style="mask-type:luminance" maskUnits="userSpaceOnUse" x="-8" y="-3" width="201" height="62">
<path d="M-7.50783 58.07H192.74V-2.26204H-7.50783V58.07Z" fill="white"/>
</mask>
<g mask="url(#mask10_3_2)">
<path d="M99.2617 43.8999V43.0465H99.1977C98.8123 43.0465 98.6283 43.3225 98.6283 43.8812V44.0279C98.6283 44.6892 98.6937 44.7799 98.8683 44.7799C99.0417 44.7799 99.2617 44.4865 99.2617 43.8999ZM99.2617 42.8999V42.1945C99.2617 41.0292 99.1617 40.7265 98.7937 40.7265C98.6283 40.7265 98.363 40.8012 98.363 41.0945C98.363 41.1679 98.3817 41.2585 98.4177 41.3599H98.647C98.6937 41.4785 98.7203 41.5985 98.7203 41.7732C98.7203 42.2039 98.3723 42.4879 97.9137 42.4879C97.3457 42.4879 97.1257 42.1759 97.1257 41.7265C97.1257 40.9572 97.795 40.5985 99.0417 40.5985C100.482 40.5985 100.967 41.0025 100.967 42.3319V44.1932C100.967 44.5692 101.078 44.6705 101.234 44.6705C101.399 44.6705 101.555 44.4959 101.6 43.7265L101.738 43.7345C101.692 44.8345 101.352 45.1465 100.564 45.1465C99.8217 45.1465 99.4083 44.9172 99.299 44.4679C99.1523 44.9092 98.8857 45.1465 98.2443 45.1465C97.6017 45.1465 96.8857 44.9545 96.8857 44.0385C96.8857 43.1119 97.6843 42.8999 98.9963 42.8999H99.2617Z" fill="white"/>
</g>
<mask id="mask11_3_2" style="mask-type:luminance" maskUnits="userSpaceOnUse" x="-8" y="-3" width="201" height="62">
<path d="M-7.50781 58.07H192.74V-2.26204H-7.50781V58.07Z" fill="white"/>
</mask>
<g mask="url(#mask11_3_2)">
<path d="M104.772 42.4327V44.89H105.423V45.0553H102.562V44.89H103.067V40.8567H102.562V40.69H104.772V41.5713C104.938 40.9193 105.451 40.5993 106.002 40.5993C106.543 40.5993 106.972 40.8833 106.972 41.5793C106.972 42.1033 106.699 42.4513 106.203 42.4513C105.588 42.4513 105.294 42.066 105.488 41.4153H105.818C106.002 41.0393 105.818 40.9473 105.626 40.9473C105.184 40.9473 104.772 41.6073 104.772 42.4327Z" fill="white"/>
</g>
<mask id="mask12_3_2" style="mask-type:luminance" maskUnits="userSpaceOnUse" x="-8" y="-3" width="201" height="62">
<path d="M-7.50783 58.07H192.74V-2.26204H-7.50783V58.07Z" fill="white"/>
</mask>
<g mask="url(#mask12_3_2)">
<path d="M110.062 40.6904V41.5344C110.218 41.0757 110.521 40.5984 111.429 40.5984C112.281 40.5984 112.85 41.0197 112.85 42.1304V44.8904H113.364V45.0557H110.768V44.8904H111.145V41.9104C111.145 41.1304 111.034 41.0397 110.805 41.0397C110.42 41.0397 110.062 41.6171 110.062 42.3597V44.8904H110.457V45.0557H107.853V44.8904H108.357V40.8557H107.853V40.6904H110.062Z" fill="white"/>
</g>
<mask id="mask13_3_2" style="mask-type:luminance" maskUnits="userSpaceOnUse" x="-8" y="-3" width="201" height="62">
<path d="M-7.50781 58.07H192.74V-2.26204H-7.50781V58.07Z" fill="white"/>
</mask>
<g mask="url(#mask13_3_2)">
<path d="M116.985 42.506V42.0567C116.985 41.094 116.911 40.774 116.535 40.774C116.214 40.774 116.041 41.0847 116.041 42.0567V42.506H116.985ZM116.618 40.5993C118.058 40.5993 118.673 41.3233 118.617 42.69H116.031V43.0473C116.031 44.1287 116.223 44.8633 117.113 44.8633C117.791 44.8633 118.25 44.4327 118.451 43.726L118.617 43.7527C118.406 44.542 117.929 45.1473 116.627 45.1473C114.995 45.1473 114.262 44.2113 114.262 42.882C114.262 41.2967 115.343 40.5993 116.618 40.5993Z" fill="white"/>
</g>
<mask id="mask14_3_2" style="mask-type:luminance" maskUnits="userSpaceOnUse" x="-8" y="-3" width="201" height="62">
<path d="M-7.50783 58.07H192.74V-2.26204H-7.50783V58.07Z" fill="white"/>
</mask>
<g mask="url(#mask14_3_2)">
<path d="M119.799 43.5056H119.909C120.249 44.6243 120.809 44.9456 121.561 44.9456C122.238 44.9456 122.495 44.6976 122.495 44.3496C122.495 43.9363 122.046 43.8456 121.349 43.6523C120.615 43.4509 119.799 43.1669 119.799 42.1483C119.799 41.2136 120.441 40.5989 121.414 40.5989C121.817 40.5989 122.091 40.7003 122.339 40.8096C122.449 40.8563 122.486 40.8829 122.597 40.8829C122.734 40.8829 122.798 40.8096 122.917 40.5803H123.018V41.9843H122.907C122.578 41.1403 122.11 40.7909 121.459 40.7909C120.854 40.7909 120.606 41.0389 120.606 41.3243C120.606 41.7443 121.157 41.8456 121.762 42.0109C122.486 42.2029 123.293 42.4963 123.293 43.5789C123.293 44.6243 122.614 45.1469 121.578 45.1469C121.138 45.1469 120.826 45.0549 120.478 44.8816C120.422 44.8456 120.341 44.8069 120.303 44.8069C120.185 44.8069 120.055 44.8909 119.909 45.1469H119.799V43.5056Z" fill="white"/>
</g>
<mask id="mask15_3_2" style="mask-type:luminance" maskUnits="userSpaceOnUse" x="-8" y="-3" width="201" height="62">
<path d="M-7.50783 58.07H192.74V-2.26204H-7.50783V58.07Z" fill="white"/>
</mask>
<g mask="url(#mask15_3_2)">
<path d="M132.003 45.0553H130.719L127.574 39.1233V44.882H128.078V45.0553H126.822V44.882H127.326V38.8113H126.822V38.6353H129.353L131.755 43.2393V38.8113H131.251V38.6353H132.507V38.8113H132.003V45.0553Z" fill="white"/>
</g>
<mask id="mask16_3_2" style="mask-type:luminance" maskUnits="userSpaceOnUse" x="-8" y="-3" width="201" height="62">
<path d="M-7.50783 58.07H192.74V-2.26204H-7.50783V58.07Z" fill="white"/>
</mask>
<g mask="url(#mask16_3_2)">
<path d="M136.431 42.4696C136.431 41.4789 136.403 40.7643 135.89 40.7643C135.331 40.7643 135.303 41.4789 135.303 42.5149V43.2309C135.303 44.2949 135.322 44.9816 135.882 44.9816C136.403 44.9816 136.431 44.4403 136.431 43.2483V42.4696ZM135.918 40.5989C137.458 40.5989 138.193 41.3229 138.193 42.8083C138.193 44.3123 137.495 45.1469 135.863 45.1469C134.322 45.1469 133.543 44.3216 133.543 42.8909C133.543 41.3869 134.442 40.5989 135.918 40.5989Z" fill="white"/>
</g>
<mask id="mask17_3_2" style="mask-type:luminance" maskUnits="userSpaceOnUse" x="-8" y="-3" width="201" height="62">
<path d="M-7.50783 58.07H192.74V-2.26204H-7.50783V58.07Z" fill="white"/>
</mask>
<g mask="url(#mask17_3_2)">
<path d="M141.392 42.2313V43.9367C141.392 44.4313 141.602 44.8807 141.988 44.8807C142.437 44.8807 142.529 44.3407 142.529 43.0647V42.5887C142.529 41.2953 142.418 40.9927 142.108 40.9927C141.73 40.9927 141.392 41.4327 141.392 42.2313ZM141.392 41.3873C141.593 40.9287 141.924 40.5993 142.621 40.5993C143.666 40.5993 144.298 41.314 144.298 42.882C144.298 44.45 143.657 45.1473 142.409 45.1473C141.777 45.1473 141.465 44.9727 141.336 44.514L141.273 45.0553H139.181V44.8913H139.686V38.3433H139.181V38.178H141.392V41.3873Z" fill="white"/>
</g>
<mask id="mask18_3_2" style="mask-type:luminance" maskUnits="userSpaceOnUse" x="-8" y="-3" width="201" height="62">
<path d="M-7.50781 58.07H192.74V-2.26204H-7.50781V58.07Z" fill="white"/>
</mask>
<g mask="url(#mask18_3_2)">
<path d="M147.516 42.4327V44.89H148.167V45.0553H145.306V44.89H145.811V40.8567H145.306V40.69H147.516V41.5713C147.682 40.9193 148.195 40.5993 148.746 40.5993C149.287 40.5993 149.716 40.8833 149.716 41.5793C149.716 42.1033 149.443 42.4513 148.947 42.4513C148.332 42.4513 148.039 42.066 148.232 41.4153H148.562C148.746 41.0393 148.562 40.9473 148.37 40.9473C147.928 40.9473 147.516 41.6073 147.516 42.4327Z" fill="white"/>
</g>
<mask id="mask19_3_2" style="mask-type:luminance" maskUnits="userSpaceOnUse" x="-8" y="-3" width="201" height="62">
<path d="M-7.50783 58.07H192.74V-2.26204H-7.50783V58.07Z" fill="white"/>
</mask>
<g mask="url(#mask19_3_2)">
<path d="M153.302 42.506V42.0567C153.302 41.094 153.228 40.774 152.852 40.774C152.531 40.774 152.358 41.0847 152.358 42.0567V42.506H153.302ZM152.935 40.5993C154.375 40.5993 154.99 41.3233 154.934 42.69H152.348V43.0473C152.348 44.1287 152.54 44.8633 153.43 44.8633C154.108 44.8633 154.567 44.4327 154.768 43.726L154.934 43.7527C154.723 44.542 154.246 45.1473 152.944 45.1473C151.312 45.1473 150.579 44.2113 150.579 42.882C150.579 41.2967 151.66 40.5993 152.935 40.5993Z" fill="white"/>
</g>
<mask id="mask20_3_2" style="mask-type:luminance" maskUnits="userSpaceOnUse" x="-8" y="-3" width="201" height="62">
<path d="M-7.50783 58.07H192.74V-2.26204H-7.50783V58.07Z" fill="white"/>
</mask>
<g mask="url(#mask20_3_2)">
<path d="M156.116 43.5056H156.226C156.566 44.6243 157.126 44.9456 157.878 44.9456C158.555 44.9456 158.812 44.6976 158.812 44.3496C158.812 43.9363 158.363 43.8456 157.666 43.6523C156.932 43.4509 156.116 43.1669 156.116 42.1483C156.116 41.2136 156.758 40.5989 157.731 40.5989C158.134 40.5989 158.408 40.7003 158.656 40.8096C158.766 40.8563 158.803 40.8829 158.914 40.8829C159.051 40.8829 159.115 40.8096 159.234 40.5803H159.335V41.9843H159.226C158.895 41.1403 158.427 40.7909 157.776 40.7909C157.171 40.7909 156.923 41.0389 156.923 41.3243C156.923 41.7443 157.474 41.8456 158.078 42.0109C158.803 42.2029 159.61 42.4963 159.61 43.5789C159.61 44.6243 158.932 45.1469 157.895 45.1469C157.455 45.1469 157.143 45.0549 156.795 44.8816C156.739 44.8456 156.658 44.8069 156.62 44.8069C156.502 44.8069 156.372 44.8909 156.226 45.1469H156.116V43.5056Z" fill="white"/>
</g>
<mask id="mask21_3_2" style="mask-type:luminance" maskUnits="userSpaceOnUse" x="-8" y="-3" width="201" height="62">
<path d="M-7.50783 58.07H192.74V-2.26204H-7.50783V58.07Z" fill="white"/>
</mask>
<g mask="url(#mask21_3_2)">
<path d="M27.9039 4.90134C15.2199 4.90134 4.90124 15.22 4.90124 27.904C4.90124 40.588 15.2199 50.9067 27.9039 50.9067C40.5879 50.9067 50.9066 40.588 50.9066 27.904C50.9066 15.22 40.5879 4.90134 27.9039 4.90134ZM27.9039 55.808C12.5172 55.808 -9.15527e-05 43.2907 -9.15527e-05 27.904C-9.15527e-05 12.5173 12.5172 5.96619e-06 27.9039 5.96619e-06C43.2906 5.96619e-06 55.8079 12.5173 55.8079 27.904C55.8079 43.2907 43.2906 55.808 27.9039 55.808Z" fill="white"/>
</g>
<mask id="mask22_3_2" style="mask-type:luminance" maskUnits="userSpaceOnUse" x="-8" y="-3" width="201" height="62">
<path d="M-7.50783 58.07H192.74V-2.26204H-7.50783V58.07Z" fill="white"/>
</mask>
<g mask="url(#mask22_3_2)">
<path d="M34.9734 17.2753C35.828 19.5087 36.208 22.482 36.208 26.3207V28.7367C36.208 31.9473 35.9747 35.37 34.8987 38.1727C38.364 36.2567 39.8894 32.7873 39.8894 27.4033C39.8894 22.202 38.424 18.974 34.9734 17.2753ZM26.7934 16.5927V39.226C28.9854 39.0967 31.3067 38.0033 31.3067 28.7367V26.3207C31.3067 17.9473 29.5587 16.7607 26.7934 16.5927ZM18.668 40.0353H21.8907V15.7727H18.668V40.0353ZM25.2587 44.9367H6.55737V39.2433H13.7667V16.5647H6.55737V10.87H26.3414C38.756 10.87 44.7907 16.2793 44.7907 27.4033C44.7907 39.038 38.22 44.9367 25.2587 44.9367Z" fill="white"/>
</g>
</g>
<defs>
<clipPath id="clip0_3_2">
<rect width="185.233" height="55.808" fill="white"/>
</clipPath>
</defs>
</svg>
