<svg width="287" height="165" viewBox="0 0 287 165" fill="none" xmlns="http://www.w3.org/2000/svg">
<g clip-path="url(#clip0_6_2)">
<mask id="mask0_6_2" style="mask-type:luminance" maskUnits="userSpaceOnUse" x="0" y="-1" width="287" height="166">
<path d="M-6.10352e-05 164.352H286.093V-0.00173988H-6.10352e-05V164.352Z" fill="white"/>
</mask>
<g mask="url(#mask0_6_2)">
<path d="M18.2466 130.593C26.4853 130.593 29.7199 125.283 29.7199 111.614V108.074C29.7199 93.246 25.9346 90.194 17.3919 90.194H15.9279V130.593H18.2466ZM17.2706 131.753H-6.10352e-05V130.593H4.02794V90.194H-6.10352e-05V89.034H18.8573C33.9306 89.034 42.2906 94.466 42.2906 109.661C42.2906 126.87 31.8546 131.753 17.2706 131.753Z" fill="white"/>
</g>
<mask id="mask1_6_2" style="mask-type:luminance" maskUnits="userSpaceOnUse" x="0" y="-1" width="287" height="166">
<path d="M-6.10352e-05 164.352H286.093V-0.00173988H-6.10352e-05V164.352Z" fill="white"/>
</mask>
<g mask="url(#mask1_6_2)">
<path d="M50.1133 98.2115C54.8626 95.1168 56.8066 92.0928 56.8066 89.4301C56.8066 87.7035 55.7266 86.9835 54.8626 86.8395L51.8399 89.6461C50.1853 89.0715 48.0253 87.3435 48.0253 84.6075C48.0253 81.4422 50.6173 79.3542 53.7839 79.3542C57.6706 79.3542 60.2626 81.8728 60.2626 86.2635C60.2626 91.7341 56.0866 95.9088 50.7599 99.2195L50.1133 98.2115Z" fill="white"/>
</g>
<mask id="mask2_6_2" style="mask-type:luminance" maskUnits="userSpaceOnUse" x="0" y="-1" width="287" height="166">
<path d="M-6.10352e-05 164.352H286.093V-0.00173988H-6.10352e-05V164.352Z" fill="white"/>
</mask>
<g mask="url(#mask2_6_2)">
<path d="M78.4486 107.831V112.652C78.4486 123.88 81.6833 131.143 88.3353 131.143C93.2779 131.143 97.2446 126.015 100.662 118.083H101.761L101.334 131.691H100.662C100.235 130.897 99.9899 130.471 99.0153 130.471C96.9406 130.471 93.5833 132.363 86.8699 132.363C73.9326 132.363 65.9993 125.529 65.9993 110.943C65.9993 96.1745 74.5433 88.3639 87.0539 88.3639C93.4006 88.3639 96.3299 90.2545 98.4659 90.2545C99.4419 90.2545 99.6859 89.8279 100.113 89.0345H100.785L101.273 102.277H100.175C96.8179 94.7706 93.1566 89.5839 87.9073 89.5839C81.7446 89.5839 78.4486 95.1986 78.4486 107.831Z" fill="white"/>
</g>
<mask id="mask3_6_2" style="mask-type:luminance" maskUnits="userSpaceOnUse" x="0" y="-1" width="287" height="166">
<path d="M-6.10352e-05 164.352H286.093V-0.00173988H-6.10352e-05V164.352Z" fill="white"/>
</mask>
<g mask="url(#mask3_6_2)">
<path d="M125.311 114.543C125.311 107.952 125.128 103.192 121.71 103.192C117.987 103.192 117.804 107.952 117.804 114.847V119.608C117.804 126.687 117.927 131.264 121.65 131.264C125.128 131.264 125.311 127.663 125.311 119.73V114.543ZM121.894 102.094C132.147 102.094 137.027 106.915 137.027 116.8C137.027 126.81 132.391 132.363 121.528 132.363C111.275 132.363 106.089 126.87 106.089 117.35C106.089 107.342 112.07 102.094 121.894 102.094Z" fill="white"/>
</g>
<mask id="mask4_6_2" style="mask-type:luminance" maskUnits="userSpaceOnUse" x="0" y="-1" width="287" height="166">
<path d="M-6.10352e-05 164.352H286.093V-0.00173988H-6.10352e-05V164.352Z" fill="white"/>
</mask>
<g mask="url(#mask4_6_2)">
<path d="M153.44 114.299V130.654H157.773V131.752H138.733V130.654H142.089V103.803H138.733V102.704H153.44V108.563C154.538 104.23 157.956 102.095 161.617 102.095C165.218 102.095 168.086 103.986 168.086 108.623C168.086 112.102 166.256 114.42 162.96 114.42C158.872 114.42 156.918 111.858 158.2 107.526H160.397C161.617 105.023 160.397 104.414 159.116 104.414C156.185 104.414 153.44 108.807 153.44 114.299Z" fill="white"/>
</g>
<mask id="mask5_6_2" style="mask-type:luminance" maskUnits="userSpaceOnUse" x="0" y="-1" width="287" height="166">
<path d="M-6.10352e-05 164.352H286.093V-0.00173988H-6.10352e-05V164.352Z" fill="white"/>
</mask>
<g mask="url(#mask5_6_2)">
<path d="M171.988 103.803H168.632V102.704H171.988V94.8319L183.339 92.0239V102.704H191.272V103.803H183.339V124.369C183.339 127.969 183.888 129.921 186.024 129.921C188.953 129.921 190.784 127.236 191.333 123.087L192.371 123.209C191.821 127.969 189.807 132.363 182.363 132.363C176.32 132.363 171.988 130.593 171.988 123.027V103.803Z" fill="white"/>
</g>
<mask id="mask6_6_2" style="mask-type:luminance" maskUnits="userSpaceOnUse" x="0" y="-1" width="287" height="166">
<path d="M-6.10352e-05 164.352H286.093V-0.00173988H-6.10352e-05V164.352Z" fill="white"/>
</mask>
<g mask="url(#mask6_6_2)">
<path d="M207.685 85.9831V108.319C208.722 105.267 210.737 102.094 216.777 102.094C222.453 102.094 226.237 104.902 226.237 112.286V130.654H229.654V131.752H212.384V130.654H214.885V110.822C214.885 105.634 214.154 105.023 212.628 105.023C210.065 105.023 207.685 108.867 207.685 113.811V130.654H210.309V131.752H192.978V130.654H196.334V87.0818H192.978V85.9831H207.685Z" fill="white"/>
</g>
<mask id="mask7_6_2" style="mask-type:luminance" maskUnits="userSpaceOnUse" x="0" y="-1" width="287" height="166">
<path d="M-6.10352e-05 164.352H286.093V-0.00173988H-6.10352e-05V164.352Z" fill="white"/>
</mask>
<g mask="url(#mask7_6_2)">
<path d="M248.994 114.788V111.797C248.994 105.389 248.506 103.253 246.004 103.253C243.868 103.253 242.708 105.329 242.708 111.797V114.788H248.994ZM246.553 102.094C256.133 102.094 260.224 106.916 259.857 116.008H242.648V118.389C242.648 125.589 243.929 130.472 249.849 130.472C254.364 130.472 257.416 127.604 258.758 122.904L259.857 123.086C258.453 128.334 255.28 132.364 246.614 132.364C235.752 132.364 230.87 126.138 230.87 117.289C230.87 106.732 238.07 102.094 246.553 102.094Z" fill="white"/>
</g>
<mask id="mask8_6_2" style="mask-type:luminance" maskUnits="userSpaceOnUse" x="0" y="-1" width="287" height="166">
<path d="M-6.10352e-05 164.352H286.093V-0.00173988H-6.10352e-05V164.352Z" fill="white"/>
</mask>
<g mask="url(#mask8_6_2)">
<path d="M262.843 121.439H263.575C265.832 128.883 269.556 131.02 274.559 131.02C279.075 131.02 280.783 129.372 280.783 127.054C280.783 124.307 277.793 123.696 273.156 122.416C268.273 121.072 262.843 119.182 262.843 112.407C262.843 106.182 267.113 102.095 273.583 102.095C276.269 102.095 278.099 102.766 279.747 103.498C280.479 103.803 280.724 103.986 281.456 103.986C282.371 103.986 282.797 103.498 283.591 101.972H284.261V111.308H283.531C281.333 105.694 278.221 103.375 273.887 103.375C269.861 103.375 268.212 105.023 268.212 106.915C268.212 109.723 271.875 110.394 275.901 111.492C280.724 112.774 286.092 114.726 286.092 121.927C286.092 128.883 281.577 132.363 274.681 132.363C271.752 132.363 269.677 131.752 267.359 130.592C266.992 130.348 266.444 130.104 266.199 130.104C265.407 130.104 264.552 130.654 263.575 132.363H262.843V121.439Z" fill="white"/>
</g>
<mask id="mask9_6_2" style="mask-type:luminance" maskUnits="userSpaceOnUse" x="0" y="-1" width="287" height="166">
<path d="M-6.10352e-05 164.352H286.093V-0.00173988H-6.10352e-05V164.352Z" fill="white"/>
</mask>
<g mask="url(#mask9_6_2)">
<path d="M65.0926 155.625V157.339C65.0926 161.334 66.2433 163.919 68.6099 163.919C70.3686 163.919 71.7806 162.094 72.9966 159.273H73.3873L73.2353 164.114H72.9966C72.8433 163.831 72.7566 163.681 72.4099 163.681C71.6713 163.681 70.4766 164.353 68.0886 164.353C63.4859 164.353 60.6646 161.921 60.6646 156.733C60.6646 151.479 63.7033 148.699 68.1539 148.699C70.4126 148.699 71.4539 149.373 72.2139 149.373C72.5606 149.373 72.6486 149.221 72.8006 148.938H73.0393L73.2126 153.649H72.8233C71.6286 150.978 70.3259 149.133 68.4579 149.133C66.2646 149.133 65.0926 151.131 65.0926 155.625Z" fill="white"/>
</g>
<mask id="mask10_6_2" style="mask-type:luminance" maskUnits="userSpaceOnUse" x="0" y="-1" width="287" height="166">
<path d="M-6.10352e-05 164.352H286.093V-0.00173988H-6.10352e-05V164.352Z" fill="white"/>
</mask>
<g mask="url(#mask10_6_2)">
<path d="M82.5455 161.4V159.381H82.3948C81.4815 159.381 81.0468 160.033 81.0468 161.356V161.704C81.0468 163.268 81.2002 163.484 81.6122 163.484C82.0255 163.484 82.5455 162.789 82.5455 161.4ZM82.5455 159.033V157.362C82.5455 154.605 82.3068 153.889 81.4375 153.889C81.0468 153.889 80.4175 154.062 80.4175 154.757C80.4175 154.93 80.4615 155.148 80.5482 155.386H81.0908C81.2002 155.668 81.2655 155.95 81.2655 156.362C81.2655 157.384 80.4402 158.057 79.3535 158.057C78.0082 158.057 77.4868 157.318 77.4868 156.254C77.4868 154.432 79.0708 153.584 82.0255 153.584C85.4348 153.584 86.5842 154.54 86.5842 157.688V162.094C86.5842 162.985 86.8455 163.224 87.2148 163.224C87.6042 163.224 87.9735 162.812 88.0828 160.986L88.4082 161.009C88.2988 163.616 87.4962 164.353 85.6295 164.353C83.8695 164.353 82.8922 163.81 82.6335 162.746C82.2855 163.789 81.6562 164.353 80.1348 164.353C78.6162 164.353 76.9215 163.897 76.9215 161.725C76.9215 159.533 78.8122 159.033 81.9162 159.033H82.5455Z" fill="white"/>
</g>
<mask id="mask11_6_2" style="mask-type:luminance" maskUnits="userSpaceOnUse" x="0" y="-1" width="287" height="166">
<path d="M-6.10352e-05 164.352H286.093V-0.00173988H-6.10352e-05V164.352Z" fill="white"/>
</mask>
<g mask="url(#mask11_6_2)">
<path d="M95.5926 157.926V163.746H97.1326V164.135H90.3593V163.746H91.5539V154.193H90.3593V153.802H95.5926V155.885C95.9833 154.345 97.1993 153.583 98.5033 153.583C99.7833 153.583 100.803 154.257 100.803 155.907C100.803 157.145 100.153 157.97 98.9793 157.97C97.5246 157.97 96.8299 157.058 97.2873 155.517H98.0673C98.5033 154.626 98.0673 154.41 97.6113 154.41C96.5686 154.41 95.5926 155.973 95.5926 157.926Z" fill="white"/>
</g>
<mask id="mask12_6_2" style="mask-type:luminance" maskUnits="userSpaceOnUse" x="0" y="-1" width="287" height="166">
<path d="M-6.10352e-05 164.352H286.093V-0.00173988H-6.10352e-05V164.352Z" fill="white"/>
</mask>
<g mask="url(#mask12_6_2)">
<path d="M108.118 153.801V155.798C108.487 154.714 109.203 153.583 111.352 153.583C113.372 153.583 114.718 154.583 114.718 157.21V163.746H115.934V164.135H109.79V163.746H110.68V156.689C110.68 154.843 110.419 154.626 109.876 154.626C108.963 154.626 108.118 155.994 108.118 157.753V163.746H109.051V164.135H102.886V163.746H104.079V154.193H102.886V153.801H108.118Z" fill="white"/>
</g>
<mask id="mask13_6_2" style="mask-type:luminance" maskUnits="userSpaceOnUse" x="0" y="-1" width="287" height="166">
<path d="M-6.10352e-05 164.352H286.093V-0.00173988H-6.10352e-05V164.352Z" fill="white"/>
</mask>
<g mask="url(#mask13_6_2)">
<path d="M124.507 158.099V157.035C124.507 154.757 124.333 153.997 123.443 153.997C122.683 153.997 122.271 154.734 122.271 157.035V158.099H124.507ZM123.639 153.583C127.047 153.583 128.502 155.299 128.371 158.534H122.25V159.381C122.25 161.943 122.705 163.679 124.811 163.679C126.417 163.679 127.503 162.659 127.982 160.987L128.371 161.053C127.873 162.919 126.743 164.353 123.662 164.353C119.795 164.353 118.059 162.138 118.059 158.99C118.059 155.234 120.621 153.583 123.639 153.583Z" fill="white"/>
</g>
<mask id="mask14_6_2" style="mask-type:luminance" maskUnits="userSpaceOnUse" x="0" y="-1" width="287" height="166">
<path d="M-6.10352e-05 164.352H286.093V-0.00173988H-6.10352e-05V164.352Z" fill="white"/>
</mask>
<g mask="url(#mask14_6_2)">
<path d="M131.171 160.466H131.431C132.235 163.115 133.559 163.874 135.34 163.874C136.946 163.874 137.552 163.289 137.552 162.463C137.552 161.487 136.491 161.271 134.84 160.814C133.103 160.337 131.171 159.662 131.171 157.253C131.171 155.038 132.69 153.583 134.992 153.583C135.947 153.583 136.599 153.823 137.184 154.085C137.446 154.193 137.532 154.258 137.792 154.258C138.119 154.258 138.27 154.085 138.552 153.541H138.792V156.863H138.53C137.75 154.865 136.642 154.039 135.102 154.039C133.667 154.039 133.08 154.627 133.08 155.301C133.08 156.297 134.384 156.537 135.816 156.927C137.532 157.383 139.443 158.078 139.443 160.639C139.443 163.115 137.835 164.353 135.383 164.353C134.34 164.353 133.603 164.135 132.778 163.723C132.647 163.637 132.452 163.55 132.364 163.55C132.083 163.55 131.779 163.746 131.431 164.353H131.171V160.466Z" fill="white"/>
</g>
<mask id="mask15_6_2" style="mask-type:luminance" maskUnits="userSpaceOnUse" x="0" y="-1" width="287" height="166">
<path d="M-6.10352e-05 164.352H286.093V-0.00173988H-6.10352e-05V164.352Z" fill="white"/>
</mask>
<g mask="url(#mask15_6_2)">
<path d="M160.066 164.136H157.026L149.578 150.088V163.722H150.772V164.136H147.799V163.722H148.992V149.35H147.799V148.938H153.791L159.479 159.836V149.35H158.286V148.938H161.259V149.35H160.066V164.136Z" fill="white"/>
</g>
<mask id="mask16_6_2" style="mask-type:luminance" maskUnits="userSpaceOnUse" x="0" y="-1" width="287" height="166">
<path d="M-6.10352e-05 164.352H286.093V-0.00173988H-6.10352e-05V164.352Z" fill="white"/>
</mask>
<g mask="url(#mask16_6_2)">
<path d="M170.55 158.013C170.55 155.668 170.484 153.976 169.268 153.976C167.944 153.976 167.879 155.668 167.879 158.121V159.816C167.879 162.333 167.923 163.962 169.247 163.962C170.484 163.962 170.55 162.681 170.55 159.858V158.013ZM169.335 153.584C172.982 153.584 174.719 155.3 174.719 158.817C174.719 162.377 173.068 164.352 169.203 164.352C165.555 164.352 163.711 162.398 163.711 159.01C163.711 155.45 165.838 153.584 169.335 153.584Z" fill="white"/>
</g>
<mask id="mask17_6_2" style="mask-type:luminance" maskUnits="userSpaceOnUse" x="0" y="-1" width="287" height="166">
<path d="M-6.10352e-05 164.352H286.093V-0.00173988H-6.10352e-05V164.352Z" fill="white"/>
</mask>
<g mask="url(#mask17_6_2)">
<path d="M182.294 157.449V161.487C182.294 162.659 182.792 163.723 183.706 163.723C184.768 163.723 184.986 162.441 184.986 159.423V158.294C184.986 155.234 184.726 154.517 183.988 154.517C183.098 154.517 182.294 155.561 182.294 157.449ZM182.294 155.451C182.771 154.366 183.552 153.585 185.204 153.585C187.678 153.585 189.176 155.278 189.176 158.989C189.176 162.703 187.656 164.353 184.704 164.353C183.206 164.353 182.467 163.939 182.163 162.854L182.012 164.135H177.06V163.745H178.255V148.243H177.06V147.851H182.294V155.451Z" fill="white"/>
</g>
<mask id="mask18_6_2" style="mask-type:luminance" maskUnits="userSpaceOnUse" x="0" y="-1" width="287" height="166">
<path d="M-6.10352e-05 164.352H286.093V-0.00173988H-6.10352e-05V164.352Z" fill="white"/>
</mask>
<g mask="url(#mask18_6_2)">
<path d="M196.795 157.926V163.746H198.335V164.135H191.561V163.746H192.756V154.193H191.561V153.802H196.795V155.885C197.185 154.345 198.401 153.583 199.705 153.583C200.985 153.583 202.005 154.257 202.005 155.907C202.005 157.145 201.355 157.97 200.181 157.97C198.728 157.97 198.033 157.058 198.489 155.517H199.269C199.705 154.626 199.269 154.41 198.813 154.41C197.771 154.41 196.795 155.973 196.795 157.926Z" fill="white"/>
</g>
<mask id="mask19_6_2" style="mask-type:luminance" maskUnits="userSpaceOnUse" x="0" y="-1" width="287" height="166">
<path d="M-6.10352e-05 164.352H286.093V-0.00173988H-6.10352e-05V164.352Z" fill="white"/>
</mask>
<g mask="url(#mask19_6_2)">
<path d="M210.493 158.099V157.035C210.493 154.757 210.318 153.997 209.429 153.997C208.669 153.997 208.257 154.734 208.257 157.035V158.099H210.493ZM209.625 153.583C213.033 153.583 214.487 155.299 214.357 158.534H208.235V159.381C208.235 161.943 208.69 163.679 210.797 163.679C212.402 163.679 213.489 162.659 213.967 160.987L214.357 161.053C213.858 162.919 212.729 164.353 209.647 164.353C205.781 164.353 204.045 162.138 204.045 158.99C204.045 155.234 206.606 153.583 209.625 153.583Z" fill="white"/>
</g>
<mask id="mask20_6_2" style="mask-type:luminance" maskUnits="userSpaceOnUse" x="0" y="-1" width="287" height="166">
<path d="M-6.10352e-05 164.352H286.093V-0.00173988H-6.10352e-05V164.352Z" fill="white"/>
</mask>
<g mask="url(#mask20_6_2)">
<path d="M217.156 160.466H217.416C218.22 163.115 219.544 163.874 221.326 163.874C222.931 163.874 223.538 163.289 223.538 162.463C223.538 161.487 222.476 161.271 220.826 160.814C219.088 160.337 217.156 159.662 217.156 157.253C217.156 155.038 218.675 153.583 220.978 153.583C221.932 153.583 222.584 153.823 223.17 154.085C223.431 154.193 223.518 154.258 223.778 154.258C224.104 154.258 224.255 154.085 224.538 153.541H224.778V156.863H224.518C223.735 154.865 222.627 154.039 221.087 154.039C219.654 154.039 219.066 154.627 219.066 155.301C219.066 156.297 220.37 156.537 221.802 156.927C223.518 157.383 225.428 158.078 225.428 160.639C225.428 163.115 223.823 164.353 221.368 164.353C220.326 164.353 219.588 164.135 218.763 163.723C218.632 163.637 218.436 163.55 218.35 163.55C218.068 163.55 217.764 163.746 217.416 164.353H217.156V160.466Z" fill="white"/>
</g>
<mask id="mask21_6_2" style="mask-type:luminance" maskUnits="userSpaceOnUse" x="0" y="-1" width="287" height="166">
<path d="M-6.10352e-05 164.352H286.093V-0.00173988H-6.10352e-05V164.352Z" fill="white"/>
</mask>
<g mask="url(#mask21_6_2)">
<path d="M143.046 7.19606C124.423 7.19606 109.273 22.3467 109.273 40.9694C109.273 59.5921 124.423 74.7414 143.046 74.7414C161.669 74.7414 176.818 59.5921 176.818 40.9694C176.818 22.3467 161.669 7.19606 143.046 7.19606ZM143.046 81.9387C120.454 81.9387 102.075 63.5601 102.075 40.9694C102.075 18.3787 120.454 6.08328e-05 143.046 6.08328e-05C165.638 6.08328e-05 184.017 18.3787 184.017 40.9694C184.017 63.5601 165.638 81.9387 143.046 81.9387Z" fill="white"/>
</g>
<mask id="mask22_6_2" style="mask-type:luminance" maskUnits="userSpaceOnUse" x="0" y="-1" width="287" height="166">
<path d="M-6.10352e-05 164.352H286.093V-0.00173988H-6.10352e-05V164.352Z" fill="white"/>
</mask>
<g mask="url(#mask22_6_2)">
<path d="M153.426 25.364C154.68 28.644 155.238 33.0093 155.238 38.6453V42.192C155.238 46.9053 154.895 51.932 153.316 56.0453C158.404 53.2333 160.643 48.1373 160.643 40.2346C160.643 32.5986 158.491 27.8586 153.426 25.364ZM141.415 24.3613V57.5933C144.635 57.4026 148.042 55.7973 148.042 42.192V38.6453C148.042 26.352 145.475 24.608 141.415 24.3613ZM129.487 58.78H134.219V23.1573H129.487V58.78ZM139.162 65.9773H111.706V57.6186H122.29V24.32H111.706V15.96H140.752C158.98 15.96 167.84 23.9013 167.84 40.2346C167.84 57.3173 158.192 65.9773 139.162 65.9773Z" fill="white"/>
</g>
</g>
<defs>
<clipPath id="clip0_6_2">
<rect width="286.092" height="164.352" fill="white"/>
</clipPath>
</defs>
</svg>
