<svg width="180" height="181" viewBox="0 0 180 181" fill="none" xmlns="http://www.w3.org/2000/svg">
<mask id="mask0_12_253" style="mask-type:luminance" maskUnits="userSpaceOnUse" x="-2" y="0" width="182" height="181">
<path d="M-1.18872 90.1442C-1.18872 139.928 39.1713 180.288 88.9553 180.288C138.741 180.288 179.099 139.928 179.099 90.1442C179.099 40.3589 138.741 0.000173506 88.9553 0.000173506C39.1713 0.000173506 -1.18872 40.3589 -1.18872 90.1442Z" fill="white"/>
</mask>
<g mask="url(#mask0_12_253)">
<path d="M221.225 136.187L226.124 141.951L225.797 151.753L221.412 168.369C221.303 168.782 221.391 169.213 221.651 169.551C221.912 169.891 222.307 170.085 222.735 170.085H229.568C230.189 170.085 230.733 169.665 230.891 169.063L234.14 156.671L237.709 147.795C239.396 143.602 239.015 138.783 236.689 134.909L232.288 127.573L231.999 114.573L238.62 101.881L238.98 91.6393C239.092 88.4246 238.483 85.1633 237.216 82.2059L235.795 78.8886C234.855 76.6979 233.573 74.6846 231.985 72.9073C229.28 69.8766 225.793 67.6579 221.9 66.4899L215.403 64.5393C213.041 63.8326 210.597 63.5206 208.139 63.6326L186.452 64.5659L160.555 68.1139L151.929 71.4526L151.692 71.4459L103.019 70.0633L76.8014 58.1753L87.8774 52.9819C87.9094 52.9606 87.9388 52.9393 87.9654 52.9166L75.3988 51.9033L69.5734 51.3206L65.3121 48.4166C64.1641 47.6326 62.8228 47.2006 61.4334 47.1633L57.0921 47.0486C55.1028 47.0046 53.1574 47.7806 51.7588 49.1993L35.4961 65.6966L31.9121 74.6579C31.6134 75.4033 31.7281 76.2659 32.2094 76.9086L32.8121 77.7579L34.6948 81.9006C35.1281 82.8553 35.9028 83.5939 36.8761 83.9846C37.2894 84.1486 37.7241 84.2446 38.1668 84.2673L58.5748 85.3993L66.8454 88.5353L84.0868 109.167L84.5974 120.157C84.6281 120.829 84.7868 121.478 85.0681 122.087L86.9401 126.143C87.4174 127.178 88.2374 128.039 89.2494 128.567L98.0641 133.166C99.5694 133.951 100.701 135.337 101.172 136.967L104.485 148.455C104.649 149.026 104.76 149.611 104.811 150.201L106.572 170.085H110.419L111.728 141.803L101.139 121.167L103.24 120.089L114.116 141.285L112.783 170.085H117.435L125.557 124.062L125.669 123.875C126.193 123.001 127.185 122.531 128.191 122.682C129.2 122.831 130.011 123.567 130.257 124.557L130.507 125.553C130.685 126.269 131.048 126.931 131.555 127.467L133.972 130.026C134.617 130.71 135.484 131.169 136.411 131.319L147.968 133.209H169.548L186.632 131.31L196.435 126.806L207.727 114.918L215.225 125.551L221.225 136.187ZM229.568 172.447H222.735C221.568 172.447 220.491 171.918 219.78 170.994C219.068 170.07 218.831 168.894 219.128 167.766L223.479 151.281L223.736 142.789L219.223 137.446L213.197 126.763L207.457 118.633L197.835 128.762L187.272 133.614L187.083 133.635L169.613 135.57L147.683 135.555L136.029 133.653C134.595 133.418 133.255 132.706 132.255 131.647L129.837 129.089C129.053 128.259 128.492 127.234 128.215 126.125L127.965 125.129C127.959 125.097 127.943 125.033 127.844 125.018C127.823 125.015 127.804 125.015 127.787 125.018L119.417 172.447H104.409L102.459 150.407C102.42 149.97 102.339 149.534 102.216 149.109L98.9014 137.622C98.6094 136.61 97.9068 135.747 96.9708 135.259L88.1561 130.661C86.6841 129.893 85.4908 128.639 84.7961 127.133L82.9241 123.078C82.5134 122.19 82.2828 121.243 82.2374 120.266L81.7628 110.071L65.4294 90.5233L57.9094 87.6726L38.0428 86.6273C37.3414 86.5899 36.6548 86.4393 36.0001 86.1779C34.4574 85.5606 33.2308 84.3886 32.5441 82.8779L30.7148 78.8526L30.3201 78.3259C29.3468 77.0299 29.1161 75.2873 29.7188 73.7806L33.4801 64.3766L50.0761 47.5406C51.9321 45.6579 54.5121 44.6073 57.1548 44.6873L61.4961 44.8019C63.3401 44.8499 65.1201 45.4259 66.6428 46.4646L70.4068 49.0299L75.6121 49.5513L88.5988 50.5979C89.5241 50.6726 90.2548 51.2939 90.4588 52.1819C90.7054 53.2606 90.1241 54.3939 88.9774 55.0686L82.4414 58.1379L103.561 67.7153L151.521 69.0779L160.097 65.7926L186.241 62.2153L208.037 61.2726C210.759 61.1539 213.468 61.4939 216.081 62.2779L222.58 64.2273C226.889 65.5206 230.751 67.9779 233.747 71.3326C235.505 73.3033 236.924 75.5313 237.965 77.9593L239.387 81.2753C240.789 84.5499 241.465 88.1633 241.341 91.7219L240.961 102.498L234.373 115.126L234.636 126.894L238.715 133.693C241.419 138.199 241.861 143.799 239.901 148.677L236.359 157.483L233.175 169.662C232.747 171.302 231.264 172.447 229.568 172.447Z" fill="black"/>
</g>
<mask id="mask1_12_253" style="mask-type:luminance" maskUnits="userSpaceOnUse" x="-2" y="0" width="182" height="181">
<path d="M-1.18872 90.1442C-1.18872 139.928 39.1713 180.288 88.9553 180.288C138.741 180.288 179.099 139.928 179.099 90.1442C179.099 40.3589 138.741 0.000173506 88.9553 0.000173506C39.1713 0.000173506 -1.18872 40.3589 -1.18872 90.1442Z" fill="white"/>
</mask>
<g mask="url(#mask1_12_253)">
<path d="M101.895 69.1953L101.538 68.7246C101.851 68.486 102.024 68.37 102.024 68.37L102.354 68.8606C102.35 68.8633 102.186 68.9726 101.895 69.1953Z" fill="black"/>
</g>
<mask id="mask2_12_253" style="mask-type:luminance" maskUnits="userSpaceOnUse" x="-2" y="0" width="182" height="181">
<path d="M-1.18872 90.1442C-1.18872 139.928 39.1713 180.288 88.9553 180.288C138.741 180.288 179.099 139.928 179.099 90.1442C179.099 40.3589 138.741 0.000173506 88.9553 0.000173506C39.1713 0.000173506 -1.18872 40.3589 -1.18872 90.1442Z" fill="white"/>
</mask>
<g mask="url(#mask2_12_253)">
<path d="M100.146 70.6611L99.7492 70.2251C100.07 69.9318 100.365 69.6758 100.629 69.4544L101.009 69.9064C100.75 70.1238 100.462 70.3758 100.146 70.6611ZM98.4972 72.2571L98.0732 71.8464C98.3598 71.5531 98.6345 71.2784 98.8985 71.0224L99.3092 71.4464C99.0505 71.6984 98.7785 71.9678 98.4972 72.2571ZM96.9452 73.9504L96.4998 73.5638C96.7625 73.2598 97.0212 72.9704 97.2745 72.6931L97.7105 73.0918C97.4612 73.3651 97.2052 73.6491 96.9452 73.9504ZM95.4878 75.7251L95.0212 75.3638C95.2665 75.0491 95.5092 74.7451 95.7492 74.4531L96.2052 74.8291C95.9678 75.1171 95.7292 75.4158 95.4878 75.7251ZM94.1212 77.5718L93.6372 77.2331C93.8652 76.9091 94.0918 76.5944 94.3172 76.2891L94.7932 76.6398C94.5692 76.9424 94.3465 77.2531 94.1212 77.5718ZM92.8492 79.4851L92.3492 79.1704C92.5598 78.8358 92.7705 78.5118 92.9825 78.1944L93.4732 78.5211C93.2652 78.8344 93.0558 79.1544 92.8492 79.4851ZM91.6705 81.4584L91.1558 81.1678C91.3505 80.8251 91.5452 80.4891 91.7412 80.1611L92.2478 80.4664C92.0532 80.7891 91.8612 81.1198 91.6705 81.4584ZM90.5838 83.4824L90.0572 83.2144C90.2345 82.8651 90.4145 82.5211 90.5945 82.1851L91.1145 82.4638C90.9372 82.7958 90.7598 83.1358 90.5838 83.4824ZM89.5905 85.5558L89.0518 85.3118C89.2145 84.9558 89.3772 84.6038 89.5425 84.2584L90.0758 84.5118C89.9118 84.8544 89.7505 85.2024 89.5905 85.5558ZM88.6918 87.6718L88.1438 87.4531C88.2905 87.0878 88.4372 86.7304 88.5865 86.3771L89.1305 86.6078C88.9825 86.9571 88.8372 87.3118 88.6918 87.6718ZM87.8878 89.8238L87.3305 89.6304C87.4598 89.2598 87.5905 88.8958 87.7252 88.5358L88.2785 88.7438C88.1465 89.0984 88.0158 89.4584 87.8878 89.8238ZM87.1758 92.0091L86.6105 91.8384C86.7225 91.4638 86.8398 91.0931 86.9585 90.7304L87.5198 90.9131C87.4025 91.2731 87.2865 91.6398 87.1758 92.0091ZM86.5532 94.2238L85.9812 94.0771C86.0798 93.6971 86.1798 93.3238 86.2838 92.9544L86.8532 93.1131C86.7505 93.4784 86.6505 93.8491 86.5532 94.2238ZM86.0212 96.4611L85.4452 96.3358C85.5278 95.9544 85.6132 95.5758 85.7025 95.2038L86.2772 95.3398C86.1892 95.7091 86.1038 96.0838 86.0212 96.4611ZM85.5772 98.7171L84.9958 98.6131C85.0638 98.2304 85.1358 97.8491 85.2092 97.4731L85.7892 97.5864C85.7158 97.9598 85.6452 98.3358 85.5772 98.7171ZM85.2198 100.989L84.6345 100.908C84.6878 100.521 84.7452 100.138 84.8052 99.7598L85.3892 99.8518C85.3292 100.226 85.2732 100.606 85.2198 100.989ZM84.9452 103.274L84.3572 103.214C84.3972 102.828 84.4398 102.442 84.4852 102.06L85.0718 102.132C85.0265 102.509 84.9838 102.889 84.9452 103.274ZM84.7505 105.568L84.1612 105.529C84.1865 105.138 84.2172 104.753 84.2492 104.37L84.8372 104.421C84.8052 104.8 84.7758 105.182 84.7505 105.568ZM84.6345 107.864L84.0438 107.844C84.0572 107.454 84.0732 107.069 84.0932 106.684L84.6825 106.714C84.6638 107.094 84.6478 107.478 84.6345 107.864Z" fill="black"/>
</g>
<mask id="mask3_12_253" style="mask-type:luminance" maskUnits="userSpaceOnUse" x="-2" y="0" width="182" height="181">
<path d="M-1.18872 90.1442C-1.18872 139.928 39.1713 180.288 88.9553 180.288C138.741 180.288 179.099 139.928 179.099 90.1442C179.099 40.3589 138.741 0.000173506 88.9553 0.000173506C39.1713 0.000173506 -1.18872 40.3589 -1.18872 90.1442Z" fill="white"/>
</mask>
<g mask="url(#mask3_12_253)">
<path d="M84.5962 109.622L84.0056 109.618L84.0136 109.022L84.6042 109.034L84.5962 109.622Z" fill="black"/>
</g>
<mask id="mask4_12_253" style="mask-type:luminance" maskUnits="userSpaceOnUse" x="-2" y="0" width="182" height="181">
<path d="M-1.18872 90.1442C-1.18872 139.928 39.1713 180.288 88.9553 180.288C138.741 180.288 179.099 139.928 179.099 90.1442C179.099 40.3589 138.741 0.000173506 88.9553 0.000173506C39.1713 0.000173506 -1.18872 40.3589 -1.18872 90.1442Z" fill="white"/>
</mask>
<g mask="url(#mask4_12_253)">
<path d="M133.569 71.6255L133.106 71.2588C133.347 70.9548 133.587 70.6455 133.829 70.3308L133.966 70.4362C134.122 70.1188 134.241 69.8868 134.314 69.7442L134.839 70.0162C134.739 70.2082 134.559 70.5628 134.315 71.0682L134.09 70.9602C133.917 71.1855 133.743 71.4068 133.569 71.6255ZM133.337 73.2082L132.795 72.9722C132.966 72.5788 133.129 72.2175 133.279 71.8868L133.817 72.1348C133.667 72.4588 133.506 72.8188 133.337 73.2082ZM132.066 73.4588L131.615 73.0788C131.866 72.7828 132.118 72.4815 132.369 72.1748L132.826 72.5482C132.573 72.8575 132.319 73.1602 132.066 73.4588ZM130.499 75.2415L130.063 74.8428C130.325 74.5562 130.586 74.2642 130.847 73.9682L131.291 74.3575C131.027 74.6562 130.763 74.9508 130.499 75.2415ZM132.426 75.3788L131.878 75.1602C132.031 74.7762 132.182 74.4095 132.329 74.0628L132.873 74.2908C132.727 74.6362 132.578 74.9988 132.426 75.3788ZM128.867 76.9628L128.447 76.5495C128.719 76.2722 128.991 75.9908 129.263 75.7028L129.693 76.1095C129.418 76.4002 129.142 76.6828 128.867 76.9628ZM131.578 77.5788L131.025 77.3748C131.166 76.9922 131.306 76.6215 131.443 76.2642L131.995 76.4762C131.858 76.8322 131.718 77.2002 131.578 77.5788ZM127.169 78.6215L126.765 78.1895C127.049 77.9242 127.331 77.6535 127.615 77.3775L128.026 77.8015C127.741 78.0802 127.454 78.3535 127.169 78.6215ZM130.79 79.7988L130.231 79.6095C130.361 79.2268 130.491 78.8522 130.621 78.4882L131.177 78.6868C131.049 79.0482 130.919 79.4188 130.79 79.7988ZM125.402 80.2055L125.018 79.7588C125.311 79.5055 125.606 79.2468 125.901 78.9828L126.295 79.4242C125.997 79.6895 125.699 79.9508 125.402 80.2055ZM123.566 81.7135L123.203 81.2468C123.509 81.0095 123.813 80.7655 124.119 80.5135L124.494 80.9708C124.183 81.2242 123.875 81.4708 123.566 81.7135ZM130.061 82.0388L129.497 81.8655C129.615 81.4788 129.735 81.1028 129.857 80.7335L130.418 80.9162C130.299 81.2828 130.179 81.6562 130.061 82.0388ZM121.662 83.1322L121.321 82.6495C121.637 82.4255 121.953 82.1948 122.27 81.9602L122.623 82.4335C122.302 82.6735 121.982 82.9055 121.662 83.1322ZM129.39 84.2975L128.821 84.1348C128.93 83.7508 129.041 83.3708 129.151 82.9975L129.718 83.1655C129.607 83.5362 129.498 83.9135 129.39 84.2975ZM119.689 84.4575L119.373 83.9588C119.699 83.7508 120.026 83.5362 120.355 83.3162L120.683 83.8082C120.351 84.0308 120.021 84.2468 119.689 84.4575ZM117.651 85.6788L117.361 85.1642C117.698 84.9735 118.037 84.7775 118.375 84.5748L118.679 85.0828C118.335 85.2882 117.993 85.4855 117.651 85.6788ZM128.777 86.5708L128.205 86.4255C128.303 86.0375 128.405 85.6562 128.505 85.2788L129.075 85.4308C128.975 85.8055 128.877 86.1855 128.777 86.5708ZM115.549 86.7895L115.287 86.2588C115.635 86.0882 115.982 85.9108 116.333 85.7268L116.607 86.2482C116.254 86.4362 115.901 86.6162 115.549 86.7895ZM113.387 87.7802L113.157 87.2362C113.513 87.0842 113.87 86.9268 114.23 86.7628L114.474 87.3002C114.11 87.4668 113.747 87.6268 113.387 87.7802ZM111.171 88.6442L110.974 88.0882C111.338 87.9588 111.703 87.8228 112.071 87.6788L112.287 88.2282C111.913 88.3748 111.541 88.5122 111.171 88.6442ZM128.226 88.8615L127.65 88.7295C127.739 88.3402 127.829 87.9562 127.921 87.5748L128.495 87.7135C128.403 88.0922 128.315 88.4748 128.226 88.8615ZM108.907 89.3762L108.743 88.8095C109.114 88.7015 109.487 88.5882 109.863 88.4655L110.045 89.0282C109.663 89.1508 109.283 89.2668 108.907 89.3762ZM88.9181 89.6335C88.1834 89.4175 87.7861 89.2615 87.7688 89.2548L87.9874 88.7055C87.9901 88.7068 88.3794 88.8602 89.0848 89.0668L88.9181 89.6335ZM106.602 89.9695L106.474 89.3922C106.85 89.3082 107.23 89.2162 107.614 89.1188L107.759 89.6908C107.371 89.7908 106.985 89.8828 106.602 89.9695ZM91.2368 90.2028C90.8128 90.1175 90.4234 90.0282 90.0714 89.9428L90.2128 89.3682C90.5581 89.4535 90.9394 89.5402 91.3541 89.6242L91.2368 90.2028ZM104.266 90.4188L104.173 89.8362C104.553 89.7762 104.937 89.7082 105.326 89.6322L105.439 90.2122C105.043 90.2895 104.653 90.3575 104.266 90.4188ZM93.5874 90.5948C93.1754 90.5388 92.7821 90.4815 92.4088 90.4202L92.5048 89.8362C92.8728 89.8975 93.2594 89.9562 93.6648 90.0082L93.5874 90.5948ZM101.905 90.7228L101.849 90.1348C102.231 90.0975 102.619 90.0548 103.013 90.0042L103.087 90.5895C102.689 90.6402 102.294 90.6855 101.905 90.7228ZM95.9594 90.8228C95.5501 90.7975 95.1541 90.7655 94.7701 90.7282L94.8288 90.1402C95.2034 90.1775 95.5928 90.2095 95.9954 90.2322L95.9594 90.8228ZM99.5288 90.8762L99.5088 90.2855C99.8928 90.2722 100.282 90.2548 100.679 90.2295L100.718 90.8175C100.315 90.8442 99.9181 90.8628 99.5288 90.8762ZM98.3381 90.8962C97.9048 90.8962 97.5221 90.8908 97.1488 90.8788L97.1661 90.2895C97.5341 90.3002 97.9101 90.3055 98.2954 90.3055L98.3381 90.8962ZM127.738 91.1628L127.158 91.0482C127.235 90.6575 127.315 90.2708 127.397 89.8882L127.975 90.0095C127.893 90.3908 127.815 90.7762 127.738 91.1628ZM127.313 93.4802L126.73 93.3815C126.797 92.9882 126.866 92.5988 126.937 92.2135L127.517 92.3202C127.447 92.7028 127.378 93.0895 127.313 93.4802ZM126.953 95.8068L126.369 95.7242C126.423 95.3295 126.482 94.9388 126.541 94.5508L127.125 94.6402C127.065 95.0255 127.009 95.4148 126.953 95.8068ZM126.662 98.1415L126.075 98.0762C126.119 97.6815 126.165 97.2895 126.214 96.8988L126.799 96.9722C126.751 97.3602 126.706 97.7495 126.662 98.1415ZM126.442 100.483L125.854 100.436C125.885 100.041 125.919 99.6468 125.955 99.2548L126.543 99.3108C126.507 99.7002 126.473 100.089 126.442 100.483ZM126.294 102.829L125.705 102.803C125.723 102.407 125.745 102.011 125.77 101.619L126.359 101.656C126.334 102.045 126.313 102.436 126.294 102.829ZM126.222 105.181L125.631 105.172C125.637 104.776 125.646 104.38 125.658 103.987L126.249 104.005C126.237 104.396 126.227 104.787 126.222 105.181ZM125.637 107.545C125.63 107.147 125.626 106.752 125.625 106.359L126.215 106.357C126.217 106.748 126.221 107.14 126.227 107.533L125.637 107.545ZM125.723 109.912C125.703 109.517 125.685 109.123 125.67 108.728L126.261 108.708C126.275 109.097 126.293 109.489 126.313 109.881L125.723 109.912ZM125.893 112.28C125.858 111.884 125.826 111.491 125.798 111.097L126.387 111.056C126.415 111.444 126.446 111.836 126.482 112.227L125.893 112.28ZM126.147 114.636C126.098 114.244 126.051 113.851 126.01 113.459L126.597 113.396C126.639 113.784 126.683 114.172 126.734 114.563L126.147 114.636ZM126.49 116.985C126.425 116.595 126.365 116.204 126.307 115.813L126.893 115.728C126.949 116.116 127.009 116.503 127.073 116.891L126.49 116.985ZM126.921 119.316C126.842 118.929 126.766 118.54 126.694 118.153L127.274 118.045C127.346 118.429 127.421 118.813 127.499 119.199L126.921 119.316ZM127.219 120.695L127.171 120.479L127.746 120.349L127.795 120.561L127.219 120.695Z" fill="black"/>
</g>
<mask id="mask5_12_253" style="mask-type:luminance" maskUnits="userSpaceOnUse" x="-2" y="0" width="182" height="181">
<path d="M-1.18872 90.1442C-1.18872 139.928 39.1713 180.288 88.9553 180.288C138.741 180.288 179.099 139.928 179.099 90.1442C179.099 40.3589 138.741 0.000173506 88.9553 0.000173506C39.1713 0.000173506 -1.18872 40.3589 -1.18872 90.1442Z" fill="white"/>
</mask>
<g mask="url(#mask5_12_253)">
<path d="M93.4285 99.8259C93.0858 99.8193 92.7405 99.8153 92.3898 99.8153H92.2538V99.2246H92.3898C92.7431 99.2246 93.0938 99.2286 93.4405 99.2353L93.4285 99.8259ZM89.9071 99.8739L89.8791 99.2833C90.2791 99.2646 90.6738 99.2499 91.0658 99.2406L91.0791 99.8313C90.6925 99.8406 90.3018 99.8553 89.9071 99.8739ZM95.7725 99.9286C95.3858 99.9033 94.9965 99.8819 94.6018 99.8646L94.6271 99.2739C95.0271 99.2913 95.4218 99.3126 95.8125 99.3406L95.7725 99.9286ZM87.5618 100.029L87.5111 99.4406C87.9098 99.4059 88.3045 99.3766 88.6951 99.3513L88.7325 99.9393C88.3471 99.9646 87.9565 99.9939 87.5618 100.029ZM98.1085 100.146C97.7245 100.101 97.3351 100.061 96.9418 100.023L96.9965 99.4353C97.3951 99.4713 97.7885 99.5139 98.1778 99.5606L98.1085 100.146ZM85.2245 100.275L85.1525 99.6886C85.5498 99.6406 85.9418 99.5953 86.3311 99.5539L86.3925 100.142C86.0071 100.181 85.6178 100.226 85.2245 100.275ZM83.8165 100.465L83.7191 99.8819L83.9778 99.8433L84.0578 100.43L83.8165 100.465ZM100.427 100.487C100.047 100.421 99.6605 100.359 99.2698 100.301L99.3551 99.7179C99.7525 99.7753 100.142 99.8379 100.528 99.9059L100.427 100.487ZM102.723 100.955C102.347 100.867 101.966 100.783 101.578 100.705L101.696 100.126C102.088 100.207 102.475 100.291 102.858 100.381L102.723 100.955ZM104.986 101.558C104.616 101.447 104.24 101.342 103.86 101.241L104.011 100.67C104.398 100.771 104.779 100.881 105.155 100.993L104.986 101.558ZM107.207 102.298C106.846 102.165 106.476 102.035 106.103 101.91L106.29 101.35C106.67 101.477 107.044 101.609 107.412 101.745L107.207 102.298ZM109.378 103.179C109.024 103.022 108.664 102.87 108.3 102.721L108.523 102.174C108.894 102.326 109.258 102.479 109.616 102.639L109.378 103.179ZM111.484 104.201C111.142 104.021 110.792 103.845 110.438 103.671L110.696 103.141C111.056 103.317 111.411 103.495 111.758 103.677L111.484 104.201ZM113.516 105.361C113.187 105.157 112.851 104.958 112.508 104.762L112.803 104.25C113.151 104.449 113.492 104.651 113.826 104.857L113.516 105.361ZM115.466 106.655C115.152 106.431 114.831 106.21 114.502 105.991L114.83 105.499C115.163 105.721 115.49 105.947 115.81 106.175L115.466 106.655ZM117.323 108.081C117.026 107.835 116.72 107.593 116.407 107.353L116.767 106.883C117.086 107.13 117.395 107.377 117.699 107.625L117.323 108.081ZM119.08 109.627C118.8 109.363 118.51 109.101 118.215 108.837L118.607 108.395C118.907 108.662 119.2 108.93 119.486 109.199L119.08 109.627ZM120.731 111.29C120.468 111.007 120.199 110.726 119.919 110.445L120.339 110.029C120.623 110.315 120.898 110.601 121.164 110.889L120.731 111.29ZM122.27 113.059C122.027 112.762 121.775 112.463 121.515 112.161L121.962 111.775C122.226 112.079 122.482 112.383 122.728 112.686L122.27 113.059ZM123.691 114.923C123.47 114.611 123.238 114.297 122.995 113.981L123.464 113.621C123.711 113.943 123.947 114.263 124.172 114.579L123.691 114.923ZM124.992 116.874C124.792 116.551 124.58 116.223 124.358 115.889L124.848 115.561C125.075 115.899 125.29 116.235 125.494 116.563L124.992 116.874ZM126.164 118.907C125.99 118.578 125.799 118.234 125.595 117.882L126.106 117.586C126.314 117.946 126.507 118.294 126.686 118.63L126.164 118.907ZM127.198 121.014C127.052 120.689 126.887 120.334 126.699 119.951L127.23 119.691C127.42 120.079 127.588 120.442 127.738 120.774L127.198 121.014ZM128.051 123.19C128.048 123.183 127.927 122.785 127.654 122.094L128.203 121.877C128.484 122.591 128.611 123.002 128.616 123.021L128.051 123.19Z" fill="black"/>
</g>
<mask id="mask6_12_253" style="mask-type:luminance" maskUnits="userSpaceOnUse" x="-2" y="0" width="182" height="181">
<path d="M-1.18872 90.1442C-1.18872 139.928 39.1713 180.288 88.9553 180.288C138.741 180.288 179.099 139.928 179.099 90.1442C179.099 40.3589 138.741 0.000173506 88.9553 0.000173506C39.1713 0.000173506 -1.18872 40.3589 -1.18872 90.1442Z" fill="white"/>
</mask>
<g mask="url(#mask6_12_253)">
<path d="M128.035 96.707H126.854V96.1162H128.035V96.707ZM130.398 96.707H129.217V96.1162H130.398V96.707ZM132.759 96.707H131.578V96.1162H132.759V96.707ZM135.122 96.707H133.941V96.1162H135.122V96.707ZM137.485 96.707H136.303V96.1162H137.485V96.707ZM139.846 96.707H138.665V96.1162H139.846V96.707ZM142.209 96.707H141.027V96.1162H142.209V96.707ZM144.57 96.707H143.389V96.1162H144.57V96.707ZM146.933 96.707H145.751V96.1162H146.933V96.707ZM149.295 96.707H148.114V96.1162H149.295V96.707ZM151.657 96.707H150.475V96.1162H151.657V96.707ZM154.019 96.707H152.838V96.1162H154.019V96.707ZM156.382 96.707H155.201V96.1162H156.382V96.707ZM158.743 96.707H157.562V96.1162H158.743V96.707ZM161.106 96.707H159.925V96.1162H161.106V96.707ZM163.469 96.707H162.287V96.1162H163.469V96.707ZM165.83 96.707H164.649V96.1162H165.83V96.707ZM168.193 96.707H167.011V96.1162H168.193V96.707ZM170.554 96.707H169.373V96.1162H170.554V96.707ZM172.917 96.707H171.735V96.1162H172.917V96.707ZM175.279 96.707H174.098V96.1162H175.279V96.707ZM177.641 96.707H176.459V96.1162H177.641V96.707ZM180.003 96.707H178.822V96.1162H180.003V96.707ZM182.366 96.707H181.185V96.1162H182.366V96.707ZM184.727 96.707H183.546V96.1162H184.727V96.707ZM187.09 96.707H185.909V96.1162H187.09V96.707ZM189.453 96.707H188.271V96.1162H189.453V96.707ZM191.814 96.707H190.633V96.1162H191.814V96.707ZM194.177 96.707H192.995V96.1162H194.177V96.707ZM196.538 96.707H195.357V96.1162H196.538V96.707ZM198.901 96.707H197.719V96.1162H198.901V96.707ZM201.263 96.707H200.082V96.1162H201.263V96.707Z" fill="black"/>
</g>
<mask id="mask7_12_253" style="mask-type:luminance" maskUnits="userSpaceOnUse" x="-2" y="0" width="182" height="181">
<path d="M-1.18872 90.1442C-1.18872 139.928 39.1713 180.288 88.9553 180.288C138.741 180.288 179.099 139.928 179.099 90.1442C179.099 40.3589 138.741 0.000173506 88.9553 0.000173506C39.1713 0.000173506 -1.18872 40.3589 -1.18872 90.1442Z" fill="white"/>
</mask>
<g mask="url(#mask7_12_253)">
<path d="M103.37 142.39H102.189V141.799H103.37V142.39ZM105.733 142.39H104.551V141.799H105.733V142.39ZM108.094 142.39H106.913V141.799H108.094V142.39ZM110.457 142.39H109.275V141.799H110.457V142.39ZM112.819 142.39H111.638V141.799H112.819V142.39ZM115.181 142.39H113.999V141.799H115.181V142.39ZM117.543 142.39H116.362V141.799H117.543V142.39ZM119.906 142.39H118.725V141.799H119.906V142.39ZM122.267 142.39H121.086V141.799H122.267V142.39Z" fill="black"/>
</g>
<mask id="mask8_12_253" style="mask-type:luminance" maskUnits="userSpaceOnUse" x="-2" y="0" width="182" height="181">
<path d="M-1.18872 90.1442C-1.18872 139.928 39.1713 180.288 88.9553 180.288C138.741 180.288 179.099 139.928 179.099 90.1442C179.099 40.3589 138.741 0.000173506 88.9553 0.000173506C39.1713 0.000173506 -1.18872 40.3589 -1.18872 90.1442Z" fill="white"/>
</mask>
<g mask="url(#mask8_12_253)">
<path d="M105.297 152.847H104.115V152.256H105.297V152.847ZM107.658 152.847H106.477V152.256H107.658V152.847ZM110.021 152.847H108.839V152.256H110.021V152.847ZM112.383 152.847H111.202V152.256H112.383V152.847ZM114.745 152.847H113.563V152.256H114.745V152.847ZM117.107 152.847H115.926V152.256H117.107V152.847ZM119.47 152.847H118.289V152.256H119.47V152.847ZM121.831 152.847H120.65V152.256H121.831V152.847ZM123.105 152.847H123.013V152.256H123.105V152.847Z" fill="black"/>
</g>
<mask id="mask9_12_253" style="mask-type:luminance" maskUnits="userSpaceOnUse" x="-2" y="0" width="182" height="181">
<path d="M-1.18872 90.1442C-1.18872 139.928 39.1713 180.288 88.9553 180.288C138.741 180.288 179.099 139.928 179.099 90.1442C179.099 40.3589 138.741 0.000173506 88.9553 0.000173506C39.1713 0.000173506 -1.18872 40.3589 -1.18872 90.1442Z" fill="white"/>
</mask>
<g mask="url(#mask9_12_253)">
<path d="M63.2218 87.9263C59.6538 87.9263 56.6365 87.2303 56.3818 87.1703L56.9272 84.8716C57.0418 84.8969 68.3818 87.5076 71.9992 82.4449L73.9218 83.8183C71.5672 87.1156 67.0725 87.9263 63.2218 87.9263Z" fill="black"/>
</g>
<mask id="mask10_12_253" style="mask-type:luminance" maskUnits="userSpaceOnUse" x="-2" y="0" width="182" height="181">
<path d="M-1.18872 90.1442C-1.18872 139.928 39.1713 180.288 88.9553 180.288C138.741 180.288 179.099 139.928 179.099 90.1442C179.099 40.3589 138.741 0.000173506 88.9553 0.000173506C39.1713 0.000173506 -1.18872 40.3589 -1.18872 90.1442Z" fill="white"/>
</mask>
<g mask="url(#mask10_12_253)">
<path d="M57.7434 63.4204C57.7434 64.959 56.8194 66.207 55.6794 66.207C54.5394 66.207 53.6154 64.959 53.6154 63.4204C53.6154 61.8817 54.5394 60.6337 55.6794 60.6337C56.8194 60.6337 57.7434 61.8817 57.7434 63.4204Z" fill="black"/>
</g>
<mask id="mask11_12_253" style="mask-type:luminance" maskUnits="userSpaceOnUse" x="-2" y="0" width="182" height="181">
<path d="M-1.18872 90.1442C-1.18872 139.928 39.1713 180.288 88.9553 180.288C138.741 180.288 179.099 139.928 179.099 90.1442C179.099 40.3589 138.741 0.000173506 88.9553 0.000173506C39.1713 0.000173506 -1.18872 40.3589 -1.18872 90.1442Z" fill="white"/>
</mask>
<g mask="url(#mask11_12_253)">
<path d="M73.7576 61.8789L71.4309 61.5349C71.6896 59.2029 76.5002 57.6989 79.3442 57.0096L79.9002 59.3042C77.0122 60.0069 74.0842 61.2336 73.7576 61.8789Z" fill="black"/>
</g>
<path fill-rule="evenodd" clip-rule="evenodd" d="M92 180C140.049 180 179 141.049 179 93C179 44.9512 140.049 6 92 6C43.9512 6 5 44.9512 5 93C5 141.049 43.9512 180 92 180ZM92 172.435C135.871 172.435 171.435 136.871 171.435 93C171.435 49.1294 135.871 13.5652 92 13.5652C48.1294 13.5652 12.5652 49.1294 12.5652 93C12.5652 136.871 48.1294 172.435 92 172.435Z" fill="black"/>
</svg>
