<svg width="41" height="40" viewBox="0 0 41 40" fill="none" xmlns="http://www.w3.org/2000/svg">
<g clip-path="url(#clip0_6_111)">
<mask id="mask0_6_111" style="mask-type:luminance" maskUnits="userSpaceOnUse" x="-348" y="-2151" width="1940" height="2363">
<path d="M-347.496 -2150.31H1591.61V211.997H-347.496V-2150.31Z" fill="white"/>
</mask>
<g mask="url(#mask0_6_111)">
<path d="M32.2841 17.7285C25.8334 13.8992 15.1854 13.5325 9.04939 15.4205C8.05339 15.7352 7.00406 15.1592 6.74139 14.1618C6.42673 13.1658 7.00406 12.1165 8.00006 11.8538C15.0814 9.70449 26.8294 10.1232 34.2241 14.5298C35.1161 15.0538 35.4307 16.2072 34.8534 17.0992C34.3294 17.9378 33.1761 18.2525 32.2841 17.7285ZM32.0747 23.3925C31.6027 24.1272 30.6587 24.3365 29.9241 23.9178C24.5747 20.6125 16.3401 19.6685 9.99339 21.6098C9.15473 21.8725 8.31473 21.4005 8.05339 20.5605C7.79073 19.7218 8.26273 18.8818 9.10139 18.6205C16.3401 16.4178 25.4134 17.4658 31.5494 21.2952C32.3361 21.7152 32.5467 22.6592 32.0747 23.3925ZM29.6614 28.8472C29.2947 29.4245 28.5601 29.6338 27.9307 29.2672C23.2107 26.3818 17.3361 25.7525 10.3614 27.3272C9.67873 27.4832 8.99739 27.0645 8.89206 26.3818C8.73473 25.7005 9.15473 25.0192 9.83606 24.9138C17.4414 23.1832 23.9974 23.9178 29.2427 27.1165C29.8187 27.4845 30.0294 28.2178 29.6614 28.8472ZM20.4827 0.00048709C9.41606 0.00048709 0.500061 8.96982 0.500061 19.9832C0.500061 31.0498 9.46939 39.9658 20.4827 39.9658C31.5494 39.9658 40.4654 30.9978 40.4654 19.9832C40.4654 8.91782 31.4974 0.00048709 20.4827 0.00048709Z" fill="white"/>
</g>
</g>
<defs>
<clipPath id="clip0_6_111">
<rect width="39.9653" height="39.9653" fill="white" transform="translate(0.5)"/>
</clipPath>
</defs>
</svg>
