<svg width="186" height="177" viewBox="0 0 186 177" fill="none" xmlns="http://www.w3.org/2000/svg">
<mask id="mask0_12_572" style="mask-type:luminance" maskUnits="userSpaceOnUse" x="9" y="0" width="177" height="177">
<path d="M9.21736 88.442C9.21736 137.158 48.7093 176.651 97.4257 176.651C146.142 176.651 185.635 137.158 185.635 88.442C185.635 39.7256 146.142 0.232388 97.4257 0.232388C48.7093 0.232388 9.21736 39.7256 9.21736 88.442Z" fill="white"/>
</mask>
<g mask="url(#mask0_12_572)">
<path d="M59.8656 98.6976C59.8643 98.7041 59.863 98.7106 59.8617 98.7158C59.8643 98.7041 59.8656 98.691 59.8682 98.6806C59.8669 98.6858 59.8669 98.6924 59.8656 98.6976Z" fill="black"/>
</g>
<mask id="mask1_12_572" style="mask-type:luminance" maskUnits="userSpaceOnUse" x="9" y="0" width="177" height="177">
<path d="M9.21736 88.442C9.21736 137.158 48.7093 176.651 97.4257 176.651C146.142 176.651 185.635 137.158 185.635 88.442C185.635 39.7256 146.142 0.232388 97.4257 0.232388C48.7093 0.232388 9.21736 39.7256 9.21736 88.442Z" fill="white"/>
</mask>
<g mask="url(#mask1_12_572)">
<path d="M59.7202 99.8202C59.7138 99.9649 59.7164 100.12 59.7164 100.273C59.7164 100.311 59.7164 100.351 59.7151 100.39C59.7125 100.145 59.7177 99.9093 59.7319 99.6831C59.728 99.7284 59.7228 99.7723 59.7202 99.8202Z" fill="black"/>
</g>
<mask id="mask2_12_572" style="mask-type:luminance" maskUnits="userSpaceOnUse" x="9" y="0" width="177" height="177">
<path d="M9.21736 88.442C9.21736 137.158 48.7093 176.651 97.4257 176.651C146.142 176.651 185.635 137.158 185.635 88.442C185.635 39.7256 146.142 0.232388 97.4257 0.232388C48.7093 0.232388 9.21736 39.7256 9.21736 88.442Z" fill="white"/>
</mask>
<g mask="url(#mask2_12_572)">
<path d="M59.7144 100.513C59.7183 100.682 59.7312 100.86 59.7429 101.037C59.7454 101.078 59.748 101.115 59.7493 101.154C59.7286 100.89 59.7183 100.637 59.7144 100.391C59.7144 100.431 59.7131 100.47 59.7144 100.513Z" fill="black"/>
</g>
<mask id="mask3_12_572" style="mask-type:luminance" maskUnits="userSpaceOnUse" x="9" y="0" width="177" height="177">
<path d="M9.21736 88.442C9.21736 137.158 48.7093 176.651 97.4257 176.651C146.142 176.651 185.635 137.158 185.635 88.442C185.635 39.7256 146.142 0.232388 97.4257 0.232388C48.7093 0.232388 9.21736 39.7256 9.21736 88.442Z" fill="white"/>
</mask>
<g mask="url(#mask3_12_572)">
<path d="M62.7794 112.329C62.0324 112.387 59.6594 112.566 56.3351 112.776V126.317C56.3351 126.317 51.1341 136.98 51.4676 141.424C51.4676 141.424 51.876 142.869 53.8936 142.869L52.689 146.645L53.2448 147.978L64.6872 148.534C64.6872 148.534 66.6866 148.2 64.6872 145.867C64.6872 145.867 60.3547 139.98 63.4645 134.649L68.3888 125.135C66.9128 122.1 64.7893 117.532 63.0108 112.931L62.9862 112.868C62.9177 112.688 62.8479 112.508 62.7794 112.329ZM61.2065 114.808L61.39 115.287H61.4081C62.8751 118.934 64.4855 122.446 65.7548 125.097L61.3991 133.516C58.5065 138.539 60.7192 143.74 62.0208 146.046L55.4536 145.726L56.1374 143.583L57.1158 140.513H53.8936C53.9039 140.513 53.8626 140.513 53.8535 140.513C53.8497 140.513 53.8393 140.513 53.8303 140.511C53.9246 139.395 54.3641 137.173 55.9706 133.061C57.1791 129.965 58.4393 127.376 58.4522 127.35L58.69 126.861V126.317V114.983C59.671 114.917 60.5202 114.858 61.2065 114.808Z" fill="black"/>
</g>
<mask id="mask4_12_572" style="mask-type:luminance" maskUnits="userSpaceOnUse" x="9" y="0" width="177" height="177">
<path d="M9.21736 88.442C9.21736 137.158 48.7093 176.651 97.4257 176.651C146.142 176.651 185.635 137.158 185.635 88.442C185.635 39.7256 146.142 0.232388 97.4257 0.232388C48.7093 0.232388 9.21736 39.7256 9.21736 88.442Z" fill="white"/>
</mask>
<g mask="url(#mask4_12_572)">
<path d="M36.6371 112.944C35.6315 112.962 34.635 112.973 33.6501 112.98C33.8233 112.979 33.9927 112.979 34.1671 112.978C34.9827 112.97 35.8073 112.958 36.6371 112.944Z" fill="black"/>
</g>
<mask id="mask5_12_572" style="mask-type:luminance" maskUnits="userSpaceOnUse" x="9" y="0" width="177" height="177">
<path d="M9.21736 88.442C9.21736 137.158 48.7093 176.651 97.4257 176.651C146.142 176.651 185.635 137.158 185.635 88.442C185.635 39.7256 146.142 0.232388 97.4257 0.232388C48.7093 0.232388 9.21736 39.7256 9.21736 88.442Z" fill="white"/>
</mask>
<g mask="url(#mask5_12_572)">
<path d="M34.167 112.977C33.9925 112.98 33.8232 112.979 33.6513 112.98C33.5569 112.981 33.4587 112.983 33.3657 112.984C33.6319 112.981 33.8995 112.98 34.167 112.977Z" fill="black"/>
</g>
<mask id="mask6_12_572" style="mask-type:luminance" maskUnits="userSpaceOnUse" x="9" y="0" width="177" height="177">
<path d="M9.21736 88.442C9.21736 137.158 48.7093 176.651 97.4257 176.651C146.142 176.651 185.635 137.158 185.635 88.442C185.635 39.7256 146.142 0.232388 97.4257 0.232388C48.7093 0.232388 9.21736 39.7256 9.21736 88.442Z" fill="white"/>
</mask>
<g mask="url(#mask6_12_572)">
<path d="M6.02375 24.4193C-19.4163 24.4193 -34.5965 32.456 -42.8504 39.1976C-43.3415 39.5983 -43.8275 40.0106 -44.3044 40.4319C-45.2027 39.849 -46.3724 39.3721 -47.7877 39.3721C-49.5222 39.3721 -51.2399 40.0868 -52.893 41.4956C-55.0656 43.3491 -55.5335 45.4015 -55.5439 46.7974C-55.5465 47.1257 -55.5245 47.4553 -55.4792 47.7849C-55.7752 47.8404 -56.0557 47.9064 -56.3207 47.9826C-58.81 48.7038 -59.5364 50.2858 -59.7483 51.166C-60.0404 52.3848 -59.9474 53.6424 -59.4821 54.8509C-60.6169 55.7621 -61.3084 56.9538 -61.4518 58.2734C-61.7401 60.9269 -60.0676 62.9677 -59.3373 63.7199C-59.3063 63.7936 -59.2636 63.9073 -59.243 64.0172C-59.2171 64.1619 -59.1835 64.3416 -59.5338 64.6699L-60.1955 65.2903L-60.2692 66.195C-60.2963 66.522 -60.3196 67.6607 -59.4885 68.5629C-59.1486 68.9312 -58.726 69.1962 -58.2555 69.3409C-58.4235 71.9039 -58.3731 74.3674 -58.103 76.6965C-57.5938 81.1 -56.2961 85.0356 -54.2488 88.3922C-53.578 89.4921 -52.9369 90.5351 -52.3152 91.5432L-52.1252 91.8521C-45.6395 102.391 -43.0921 106.798 -45.2143 110.084C-46.7588 112.476 -47.2125 114.96 -46.5611 117.467C-46.0402 119.475 -44.9325 121.07 -44.042 122.352C-43.7292 122.802 -43.2575 123.481 -43.1735 123.724L-43.1502 123.793L-43.1489 123.796L-43.1476 123.798C-39.9927 133.257 -39.5959 139.178 -39.8402 142.521C-40.065 143.572 -39.8285 144.885 -38.7028 146.05L-38.9987 148.418L-39.2895 150.74L-36.9682 151.044L-23.074 152.868L-23.0495 152.87L-23.0262 152.873C-22.9047 152.887 -22.6798 152.901 -22.4084 152.901C-20.5175 152.901 -18.9768 152.262 -18.0682 151.101C-17.5409 150.426 -16.7693 148.966 -17.5318 146.765L-17.6792 146.338L-17.9739 145.997L-24.024 138.989L-25.4173 123.368C-24.7529 122.387 -23.6466 120.742 -22.2985 118.692L-22.1279 118.432L-22.0297 118.136C-21.7634 117.326 -21.461 116.418 -21.3059 115.951C-19.4602 113.102 -17.7632 110.404 -16.2432 107.905C-15.8904 107.898 -15.3902 107.891 -14.7737 107.891C-12.199 107.891 -7.28499 108.024 -3.308 108.914C-1.56961 109.305 -0.181479 109.807 0.707752 110.37L0.83054 110.448L0.963667 110.51L1.03734 110.545L1.17305 110.61L1.31522 110.655C1.48712 110.711 5.57526 112.03 11.438 113.351C19.2627 115.114 26.2641 116.009 32.2496 116.009C40.7012 116.009 50.0924 115.528 56.4824 115.126C58.8606 114.977 60.767 114.84 61.9212 114.755C61.96 114.851 61.9975 114.944 62.0337 115.035L62.035 115.038L62.0363 115.042L62.1267 115.263L62.1397 115.297C62.2741 115.625 62.4318 116.013 62.592 116.398L62.6334 116.499L62.636 116.504L62.6386 116.509C62.8001 116.894 62.9436 117.237 63.0793 117.553L63.0819 117.558L63.0845 117.565C63.1039 117.61 63.1232 117.657 63.1426 117.702L63.1827 117.796C63.343 118.171 63.4916 118.514 63.6338 118.841L63.6764 118.937C63.6997 118.989 63.7217 119.042 63.7449 119.094C63.9117 119.474 64.0525 119.793 64.196 120.114C64.2193 120.168 64.2438 120.221 64.2671 120.274L64.2684 120.276C64.4144 120.602 64.5592 120.925 64.6833 121.197L64.6846 121.202L64.6872 121.207L64.722 121.282C64.7401 121.325 64.7595 121.366 64.7789 121.407C64.9353 121.752 65.0762 122.06 65.2106 122.35L65.2132 122.355C65.2468 122.428 65.2804 122.502 65.3127 122.572C65.4575 122.882 65.5984 123.188 65.7367 123.483L65.7392 123.49L65.7431 123.496C65.7625 123.537 65.7819 123.576 65.8013 123.618C65.9396 123.912 66.0649 124.18 66.1851 124.432L66.2007 124.464C66.2175 124.499 66.2343 124.534 66.2498 124.569C66.2898 124.65 66.3273 124.73 66.3661 124.809L66.463 125.012L66.4928 125.074C66.507 125.144 66.5238 125.227 66.5432 125.322C66.6052 125.618 66.6905 126.01 66.7719 126.389C66.8585 126.792 66.949 127.209 67.0072 127.491L67.0705 127.791L67.2075 128.065C67.6495 128.949 67.9791 129.59 68.0929 129.805L68.129 129.876L68.1704 129.943C69.2755 131.747 69.9334 134.768 70.0717 138.676C70.1841 141.856 69.9036 144.443 69.901 144.465L69.8946 144.516L69.892 144.566C69.8093 145.729 70.1466 146.783 70.8691 147.611C71.2181 148.013 71.655 148.347 72.15 148.599L73.4231 151.485L74.0422 152.888H75.5777H90.7657H91.3731L91.9056 152.595L91.9767 152.555C93.0999 151.94 93.7927 150.917 93.8754 149.754C93.9995 148.065 92.8492 146.928 92.3503 146.516L85.6125 140.077C85.0283 132.026 86.0882 125.117 87.104 120.677L85.6565 120.278L87.1377 120.495C87.1389 120.488 87.2398 119.806 87.4517 118.808C87.4659 118.745 87.4789 118.68 87.4931 118.616C87.537 118.405 87.5784 118.206 87.6301 118.008L87.6572 117.901C87.6585 117.893 87.6611 117.884 87.6624 117.876C91.2348 118.082 98.0359 118.208 100.382 118.249C102.23 119.028 104.471 119.423 107.052 119.423C111.629 119.423 116.211 118.18 117.976 117.644C119.62 118.043 121.317 118.245 123.026 118.245C126.429 118.245 130.004 117.425 133.365 115.873C134.428 115.382 135.444 114.831 136.383 114.239C136.653 114.069 137.061 113.802 137.391 113.558L150.309 106.811L150.344 106.793L150.378 106.774C153.188 105.187 154.989 102.504 155.588 99.0151C156.022 96.4805 155.656 94.3789 155.641 94.2898C155.371 92.7918 154.722 91.3791 153.813 90.3141C152.716 89.0268 151.32 88.3185 149.884 88.3185C148.271 88.3185 147.074 89.2064 146.303 90.0465C143.034 89.9134 138.599 87.9954 134.629 85.7219C136.128 85.2837 137.463 84.7577 138.522 84.2872C140.887 83.2338 143.203 81.8625 144.717 80.6166C146.399 79.2323 148.024 78.3754 149.595 77.5456C152.095 76.226 154.682 74.8611 156.075 71.7359C156.551 70.6683 156.825 69.7468 156.909 68.9209C157.06 67.4513 156.583 66.4703 156.158 65.9081C155.457 64.9827 154.356 64.4515 153.136 64.4515C152.954 64.4515 152.77 64.4644 152.612 64.4876L152.494 64.5057L151.597 64.635L151.018 65.3316L150.971 65.3885C150.848 65.4699 149.945 65.9856 146.849 65.9856C145.018 65.9856 143.105 65.7982 141.929 65.625C138.449 64.4463 133.908 63.8492 128.424 63.8492C124.421 63.8492 120.947 64.1736 119.293 64.3584C109.947 58.0743 100.057 51.5499 90.7398 46.1098C81.3602 40.6348 73.2757 36.6656 65.2998 33.6192C56.8443 30.3893 48.1808 28.1094 38.8154 26.6502C29.5418 25.2064 18.9952 24.4762 6.57435 24.4206C6.38823 24.4193 6.20728 24.4193 6.02375 24.4193ZM126.427 83.4743C126.428 83.4743 126.428 83.4743 126.428 83.4743C126.427 83.4743 126.427 83.4743 126.427 83.4743ZM34.6575 112.97C34.3215 112.974 33.9841 112.978 33.6507 112.98C33.5563 112.98 33.4594 112.982 33.365 112.983C33.6313 112.982 33.8988 112.979 34.1677 112.977C34.3292 112.975 34.4947 112.973 34.6575 112.97ZM123.796 90.1822C124.629 90.1822 125.304 89.2568 125.304 88.1143C125.304 86.9717 124.629 86.0463 123.796 86.0463C122.964 86.0463 122.289 86.9717 122.289 88.1143C122.289 89.2568 122.964 90.1822 123.796 90.1822ZM-55.0618 63.1292C-54.6495 61.0509 -54.1725 59.2776 -53.7732 57.9645C-53.9231 57.9477 -54.064 57.9399 -54.1958 57.9399C-57.0044 57.9399 -55.54 61.5938 -55.54 61.5938C-55.54 61.5938 -55.2272 62.2581 -55.0618 63.1292ZM-52.8969 55.3911C-52.7896 55.1313 -52.46 54.3714 -51.8474 53.2637C-52.4109 53.0259 -53.1062 52.7933 -53.6633 52.7933C-54.0666 52.7933 -54.3961 52.9147 -54.5525 53.243C-54.9635 54.1077 -53.7189 54.9491 -52.8969 55.3911ZM-49.2882 49.2971C-48.4261 48.1248 -47.3857 46.8452 -46.1501 45.5127C-46.605 45.1999 -47.3547 44.7876 -48.156 44.7876C-48.6911 44.7876 -49.2495 44.9711 -49.7574 45.4946C-51.1727 46.9486 -49.8285 48.7038 -49.2882 49.2971ZM6.02375 26.7742C6.20341 26.7742 6.38048 26.7755 6.56143 26.7755C55.2184 26.9952 74.9185 37.33 118.704 66.8012C119.468 66.7017 123.541 66.2041 128.424 66.2041C132.671 66.2041 137.532 66.5802 141.364 67.9218C142.544 68.1066 144.702 68.3418 146.849 68.3418C149.353 68.3418 151.842 68.0226 152.749 66.9343L152.83 66.8361L152.956 66.818C152.967 66.8167 153.034 66.8077 153.136 66.8077C153.41 66.8077 153.935 66.8736 154.278 67.3285C154.78 67.9903 154.664 69.1186 153.924 70.7782C152.862 73.1576 150.838 74.2265 148.495 75.4634C146.897 76.3061 145.088 77.2626 143.22 78.798C140.893 80.7122 135.057 83.9525 129.443 84.2872C128.421 83.8814 127.103 83.6009 126.427 83.4743H126.424C126.401 83.4704 126.378 83.4704 126.354 83.4652C126.281 83.4536 126.208 83.4355 126.136 83.4226C125.739 83.3476 125.347 83.2597 124.97 83.1369C121.806 82.1107 119.675 79.5645 118.634 75.5681L117.982 75.6987C117.987 75.7349 118.247 77.4215 119.455 79.4107C119.968 80.2947 120.569 81.0612 121.255 81.7087C122.486 82.9443 124.173 84.0972 126.456 84.8753L128.537 85.444C128.537 85.444 129.072 85.4285 129.58 85.3522C132.055 87.0221 140.512 92.4092 146.658 92.4092C146.937 92.4092 147.211 92.3989 147.48 92.3756C147.759 91.9245 148.646 90.6734 149.884 90.6734C151.404 90.6734 152.915 92.4454 153.322 94.7059C153.335 94.7757 154.529 101.725 149.22 104.724L136.129 111.56C136.104 111.586 130.516 115.89 123.026 115.89C121.492 115.89 119.878 115.709 118.214 115.275C118.351 115.081 118.484 114.884 118.612 114.688C122.508 108.762 122.553 102.334 122.553 102.22L121.886 102.224C121.887 102.335 121.84 108.709 117.926 114.509C117.726 114.804 117.518 115.096 117.298 115.387C115.633 115.895 111.319 117.067 107.052 117.067C104.871 117.067 102.7 116.761 100.904 115.901C99.3336 115.876 89.2134 115.704 86.4333 115.426C86.5289 115.119 86.6245 114.811 86.7202 114.5C86.8249 114.142 86.9309 113.786 87.0343 113.434C87.1415 113.082 87.2333 112.734 87.3302 112.397C87.5189 111.724 87.6831 111.092 87.8149 110.548C88.0863 109.461 88.2233 108.722 88.2233 108.722C88.2233 108.722 87.9144 109.407 87.5202 110.456C87.3225 110.98 87.1015 111.595 86.8766 112.258C86.7667 112.59 86.6452 112.93 86.5366 113.28C86.4268 113.631 86.3143 113.987 86.2032 114.343C86.0985 114.702 85.9938 115.06 85.8904 115.413C85.7857 115.764 85.6965 116.115 85.6022 116.452C85.5078 116.789 85.4251 117.118 85.3463 117.428C85.2674 117.739 85.208 118.04 85.1485 118.314C84.9146 119.416 84.8073 120.154 84.8073 120.154C83.7384 124.826 82.5726 132.375 83.3364 141.159L90.7993 148.294C90.8523 148.33 91.5773 148.893 91.5269 149.582C91.5088 149.837 91.3744 150.201 90.8406 150.492L90.7657 150.534H75.5777L73.8987 146.727C73.5976 146.672 73.034 146.511 72.645 146.065C72.3387 145.714 72.203 145.265 72.2404 144.733C72.2547 144.613 73.4127 133.995 70.1789 128.713C70.1027 128.568 69.7873 127.959 69.313 127.01C69.1411 126.183 68.7339 124.347 68.7546 124.347C68.7546 124.347 68.7559 124.348 68.7572 124.35C68.7016 124.235 68.6435 124.114 68.5879 123.998C68.5181 123.85 68.4483 123.707 68.3759 123.554C68.3552 123.51 68.3345 123.466 68.3139 123.422C68.1872 123.159 68.0593 122.887 67.9287 122.608C67.9093 122.567 67.8899 122.527 67.8706 122.487C67.7336 122.193 67.5927 121.889 67.4505 121.582C67.4169 121.511 67.3833 121.438 67.351 121.366C67.2088 121.06 67.0653 120.747 66.9206 120.426C66.8896 120.36 66.8598 120.292 66.8288 120.226C66.6931 119.927 66.5561 119.622 66.4191 119.315C66.3958 119.264 66.3726 119.213 66.3506 119.162C66.2007 118.828 66.052 118.488 65.9008 118.146C65.8646 118.064 65.8284 117.98 65.7922 117.897C65.6436 117.557 65.4963 117.216 65.3476 116.869C65.314 116.789 65.2804 116.709 65.2455 116.629C65.1007 116.288 64.956 115.945 64.8112 115.6C64.797 115.565 64.7828 115.53 64.7686 115.496C64.6187 115.136 64.47 114.773 64.3227 114.41C64.2878 114.325 64.2529 114.239 64.218 114.154C64.0745 113.799 63.9323 113.441 63.7927 113.084C63.7591 112.998 63.7268 112.914 63.6932 112.829C63.6881 112.818 63.6842 112.805 63.679 112.792L63.2732 111.709L63.2318 111.603L63.0302 111.066C63.0289 111.065 63.0263 111.064 63.025 111.064C63.0005 110.998 62.9759 110.933 62.9526 110.867C62.9139 110.762 62.8751 110.656 62.8363 110.553C62.8247 110.519 62.8143 110.488 62.8014 110.456C62.7381 110.277 62.6748 110.099 62.6127 109.922C62.552 109.749 62.4899 109.576 62.4305 109.403C62.424 109.386 62.4188 109.369 62.4137 109.352C62.3542 109.179 62.2961 109.009 62.2392 108.838C62.1733 108.643 62.1086 108.449 62.0453 108.254C62.0311 108.211 62.0182 108.168 62.004 108.125C61.9574 107.982 61.9109 107.839 61.8657 107.697C61.8075 107.511 61.7506 107.328 61.6951 107.146C61.6459 106.982 61.5942 106.818 61.5464 106.655C61.5425 106.645 61.5387 106.632 61.5361 106.619C61.434 106.278 61.3396 105.94 61.2504 105.608C61.2259 105.52 61.2052 105.435 61.1819 105.347C61.1755 105.319 61.1677 105.29 61.16 105.26C61.0979 105.023 61.0372 104.786 60.9816 104.553C60.9493 104.42 60.9208 104.291 60.8911 104.16C60.8433 103.951 60.7981 103.743 60.7567 103.54C60.7567 103.539 60.7554 103.537 60.7554 103.536C60.7528 103.521 60.7489 103.504 60.7464 103.488C60.7244 103.379 60.7024 103.271 60.6817 103.164C60.6417 102.953 60.6068 102.745 60.5732 102.541C60.5564 102.435 60.537 102.326 60.5228 102.223C60.4788 101.926 60.4439 101.638 60.4181 101.36C60.4129 101.317 60.4129 101.277 60.409 101.234C60.3896 100.999 60.3767 100.77 60.3715 100.549C60.3702 100.507 60.3702 100.465 60.3702 100.424C60.3702 100.379 60.3702 100.335 60.3702 100.289C60.3702 100.12 60.3741 99.956 60.3845 99.797C60.387 99.7363 60.3922 99.6768 60.3974 99.6174C60.4 99.5941 60.4 99.5709 60.4026 99.5489C60.4168 99.3938 60.4387 99.2477 60.4633 99.1056C60.4749 99.0371 60.4853 98.9673 60.4995 98.9026C60.4995 98.9013 60.4995 98.9001 60.4995 98.8988C60.5447 98.6984 60.5964 98.5071 60.6649 98.334C61.2595 96.8166 62.1241 95.064 63.0392 93.2067C63.8212 91.6195 64.05 91.0379 63.9659 91.0379C63.7527 91.0379 61.4805 94.874 61.275 95.3057C60.8071 96.2905 60.3845 97.225 60.0432 98.091C59.9734 98.2719 59.9166 98.471 59.8688 98.6803C59.8675 98.6855 59.8662 98.6907 59.8649 98.6971C59.8636 98.7023 59.8636 98.7088 59.8623 98.7152C59.7964 99.0125 59.7537 99.3356 59.7318 99.6833C59.7279 99.7285 59.7227 99.7725 59.7201 99.8203C59.7137 99.9651 59.7162 100.12 59.7162 100.273C59.7162 100.311 59.7162 100.352 59.715 100.389C59.715 100.429 59.7137 100.47 59.715 100.512C59.7188 100.681 59.7318 100.859 59.7434 101.037C59.746 101.077 59.7473 101.115 59.7499 101.154C59.7925 101.711 59.8675 102.306 59.9773 102.934C59.9928 103.024 60.0122 103.119 60.029 103.212C60.0691 103.426 60.1092 103.642 60.157 103.864C60.1815 103.982 60.2087 104.104 60.2358 104.223C60.2811 104.425 60.3263 104.63 60.3767 104.838C60.4077 104.967 60.4413 105.098 60.4749 105.228C60.5266 105.434 60.5796 105.642 60.6365 105.851C60.6714 105.983 60.7076 106.116 60.7464 106.249C60.8058 106.466 60.8679 106.685 60.9325 106.903C60.9713 107.034 61.01 107.164 61.0501 107.295C61.1199 107.527 61.1923 107.763 61.2672 107.999C61.3047 108.118 61.3422 108.238 61.381 108.358C61.4663 108.625 61.5555 108.894 61.6459 109.162C61.6757 109.253 61.7054 109.345 61.7364 109.438C61.8553 109.784 61.9768 110.134 62.1009 110.485C62.1061 110.498 62.1099 110.51 62.1151 110.523C62.1164 110.53 62.119 110.534 62.1203 110.54C62.1642 110.659 62.2069 110.779 62.2508 110.898C62.3413 111.152 62.4331 111.402 62.5261 111.656C62.53 111.656 62.5326 111.656 62.5365 111.656L62.5442 111.678L62.7794 112.31L62.7859 112.328C62.7833 112.328 62.782 112.328 62.7794 112.328C62.0324 112.386 59.6594 112.567 56.3351 112.775C50.1661 113.164 40.7154 113.652 32.2496 113.652C18.2507 113.652 2.20187 108.467 2.0416 108.415L1.96663 108.38C0.734893 107.601 -0.942754 107.031 -2.7923 106.616C-6.9386 105.687 -11.9547 105.534 -14.7737 105.534C-15.7702 105.534 -16.4927 105.554 -16.8042 105.564C-16.6684 105.338 -16.5353 105.112 -16.4009 104.886C-15.871 103.994 -15.3579 103.11 -14.8564 102.235C-12.7134 98.4878 -10.8884 94.9657 -9.98241 92.4363C-5.81672 80.8027 -1.31887 59.5103 -17.9894 47.6181L-18.3771 48.161C-2.06334 59.7985 -6.5082 80.7562 -10.6106 92.2115C-11.5851 94.9347 -13.6376 98.8251 -16.0119 102.911C-16.3983 103.574 -16.7886 104.241 -17.188 104.909C-17.2035 104.936 -17.2203 104.963 -17.2358 104.99C-19.3142 108.47 -21.5321 111.972 -23.445 114.919C-23.5277 115.167 -23.9348 116.391 -24.267 117.398C-26.1398 120.248 -27.5215 122.276 -27.8381 122.74L-26.3026 139.955L-19.7575 147.535C-19.4538 148.41 -19.5106 149.121 -19.9242 149.649C-20.5433 150.442 -21.7919 150.545 -22.4084 150.545C-22.6126 150.545 -22.747 150.535 -22.7677 150.532L-36.6619 148.709L-36.2031 145.044C-37.7528 144.094 -37.5964 143.174 -37.5072 142.905C-37.2151 139.368 -37.5744 133.062 -40.9142 123.054L-40.9388 122.978C-41.1223 122.427 -41.5785 121.769 -42.1085 121.008C-43.7176 118.691 -45.92 115.519 -43.2355 111.361C-40.224 106.698 -43.5302 101.323 -50.1193 90.6178C-50.7927 89.5231 -51.501 88.3741 -52.2377 87.1656C-56.3439 80.4369 -56.4318 72.3149 -55.5413 65.9792C-55.6718 66.1459 -55.8205 66.3062 -56.0079 66.4471C-56.6722 66.9447 -57.1065 67.1127 -57.3908 67.1127C-57.9815 67.1127 -57.922 66.3876 -57.922 66.3876C-55.8657 64.4566 -57.4723 62.2504 -57.4723 62.2504C-57.4723 62.2504 -59.3347 60.596 -59.1098 58.528C-58.8849 56.46 -56.1488 55.7479 -56.1488 55.7479C-56.1488 55.7479 -58.0086 54.0121 -57.458 51.7153C-57.0897 50.1811 -54.5603 49.9265 -52.9188 49.9265C-52.6526 49.9265 -52.4096 49.933 -52.2028 49.942C-53.2717 48.1907 -54.042 45.5721 -51.364 43.2883C-50.0081 42.1315 -48.8061 41.727 -47.7877 41.727C-45.9833 41.727 -44.7568 42.9962 -44.2721 43.6024C-43.3842 42.7494 -42.4161 41.8847 -41.3601 41.0226C-33.3855 34.5085 -18.7028 26.7742 6.02375 26.7742Z" fill="black"/>
</g>
<mask id="mask7_12_572" style="mask-type:luminance" maskUnits="userSpaceOnUse" x="9" y="0" width="177" height="177">
<path d="M9.21736 88.442C9.21736 137.158 48.7093 176.651 97.4257 176.651C146.142 176.651 185.635 137.158 185.635 88.442C185.635 39.7256 146.142 0.232388 97.4257 0.232388C48.7093 0.232388 9.21736 39.7256 9.21736 88.442Z" fill="white"/>
</mask>
<g mask="url(#mask7_12_572)">
<path d="M123.797 86.0467C124.629 86.0467 125.304 86.9721 125.304 88.1146C125.304 89.2572 124.629 90.1826 123.797 90.1826C122.964 90.1826 122.29 89.2572 122.29 88.1146C122.29 86.9721 122.964 86.0467 123.797 86.0467Z" fill="black"/>
</g>
<mask id="mask8_12_572" style="mask-type:luminance" maskUnits="userSpaceOnUse" x="9" y="0" width="177" height="177">
<path d="M9.21736 88.442C9.21736 137.158 48.7093 176.651 97.4257 176.651C146.142 176.651 185.635 137.158 185.635 88.442C185.635 39.7256 146.142 0.232388 97.4257 0.232388C48.7093 0.232388 9.21736 39.7256 9.21736 88.442Z" fill="white"/>
</mask>
<g mask="url(#mask8_12_572)">
<path d="M34.658 112.971C34.4952 112.972 34.3298 112.976 34.1669 112.977C33.8994 112.98 33.6318 112.981 33.3656 112.984C33.4599 112.983 33.5568 112.981 33.6512 112.98C33.9847 112.977 34.322 112.975 34.658 112.971Z" fill="black"/>
</g>
<mask id="mask9_12_572" style="mask-type:luminance" maskUnits="userSpaceOnUse" x="9" y="0" width="177" height="177">
<path d="M9.21736 88.442C9.21736 137.158 48.7093 176.651 97.4257 176.651C146.142 176.651 185.635 137.158 185.635 88.442C185.635 39.7256 146.142 0.232388 97.4257 0.232388C48.7093 0.232388 9.21736 39.7256 9.21736 88.442Z" fill="white"/>
</mask>
<g mask="url(#mask9_12_572)">
<path d="M126.423 83.4751C126.4 83.4712 126.376 83.4699 126.354 83.466C126.281 83.4544 126.208 83.4363 126.136 83.4234C125.739 83.3484 125.347 83.2605 124.97 83.1377C121.806 82.1115 119.675 79.5653 118.634 75.5689L117.982 75.6995C117.988 75.7357 118.247 77.4224 119.456 79.4115C119.969 80.2956 120.569 81.062 121.255 81.7095C122.486 82.9452 124.173 84.0981 126.456 84.8761L128.537 85.4448C128.537 85.4448 129.072 85.4293 129.58 85.3531C129.141 85.0571 128.884 84.8735 128.868 84.8619L128.738 84.805C127.894 84.6357 127.118 84.4199 126.407 84.1653C127.396 84.3255 128.416 84.3501 129.443 84.2881C128.421 83.8822 127.101 83.6017 126.427 83.4751H126.423Z" fill="black"/>
</g>
<mask id="mask10_12_572" style="mask-type:luminance" maskUnits="userSpaceOnUse" x="9" y="0" width="177" height="177">
<path d="M9.21736 88.442C9.21736 137.158 48.7093 176.651 97.4257 176.651C146.142 176.651 185.635 137.158 185.635 88.442C185.635 39.7256 146.142 0.232388 97.4257 0.232388C48.7093 0.232388 9.21736 39.7256 9.21736 88.442Z" fill="white"/>
</mask>
<g mask="url(#mask10_12_572)">
<path d="M126.407 84.1652C127.118 84.4199 127.893 84.6357 128.738 84.805L128.868 84.8619C128.884 84.8722 129.14 85.0558 129.58 85.353C130.26 85.2496 130.889 85.0377 130.115 84.6008C129.917 84.4896 129.688 84.385 129.443 84.288C128.415 84.3488 127.395 84.3255 126.407 84.1652Z" fill="black"/>
</g>
<mask id="mask11_12_572" style="mask-type:luminance" maskUnits="userSpaceOnUse" x="9" y="0" width="177" height="177">
<path d="M9.21736 88.442C9.21736 137.158 48.7093 176.651 97.4257 176.651C146.142 176.651 185.635 137.158 185.635 88.442C185.635 39.7256 146.142 0.232388 97.4257 0.232388C48.7093 0.232388 9.21736 39.7256 9.21736 88.442Z" fill="white"/>
</mask>
<g mask="url(#mask11_12_572)">
<path d="M96.6602 52.4803L96.9936 52.426L97.5378 55.7607L97.2043 55.8149L96.6602 52.4803Z" fill="black"/>
</g>
<mask id="mask12_12_572" style="mask-type:luminance" maskUnits="userSpaceOnUse" x="9" y="0" width="177" height="177">
<path d="M9.21736 88.442C9.21736 137.158 48.7093 176.651 97.4257 176.651C146.142 176.651 185.635 137.158 185.635 88.442C185.635 39.7256 146.142 0.232388 97.4257 0.232388C48.7093 0.232388 9.21736 39.7256 9.21736 88.442Z" fill="white"/>
</mask>
<g mask="url(#mask12_12_572)">
<path d="M97.4226 57.3993L97.7587 57.3605L98.1426 60.7184L97.8065 60.7559L97.4226 57.3993Z" fill="black"/>
</g>
<mask id="mask13_12_572" style="mask-type:luminance" maskUnits="userSpaceOnUse" x="9" y="0" width="177" height="177">
<path d="M9.21736 88.442C9.21736 137.158 48.7093 176.651 97.4257 176.651C146.142 176.651 185.635 137.158 185.635 88.442C185.635 39.7256 146.142 0.232388 97.4257 0.232388C48.7093 0.232388 9.21736 39.7256 9.21736 88.442Z" fill="white"/>
</mask>
<g mask="url(#mask13_12_572)">
<path d="M97.9503 62.334L98.2877 62.3107L98.5165 65.6828L98.1791 65.7061L97.9503 62.334Z" fill="black"/>
</g>
<mask id="mask14_12_572" style="mask-type:luminance" maskUnits="userSpaceOnUse" x="9" y="0" width="177" height="177">
<path d="M9.21736 88.442C9.21736 137.158 48.7093 176.651 97.4257 176.651C146.142 176.651 185.635 137.158 185.635 88.442C185.635 39.7256 146.142 0.232388 97.4257 0.232388C48.7093 0.232388 9.21736 39.7256 9.21736 88.442Z" fill="white"/>
</mask>
<g mask="url(#mask14_12_572)">
<path d="M98.2519 67.2844L98.5892 67.2766L98.6681 70.6539L98.3307 70.6616L98.2519 67.2844Z" fill="black"/>
</g>
<mask id="mask15_12_572" style="mask-type:luminance" maskUnits="userSpaceOnUse" x="9" y="0" width="177" height="177">
<path d="M9.21736 88.442C9.21736 137.158 48.7093 176.651 97.4257 176.651C146.142 176.651 185.635 137.158 185.635 88.442C185.635 39.7256 146.142 0.232388 97.4257 0.232388C48.7093 0.232388 9.21736 39.7256 9.21736 88.442Z" fill="white"/>
</mask>
<g mask="url(#mask15_12_572)">
<path d="M98.332 72.2517L98.6693 72.2595L98.597 75.6367L98.2596 75.629L98.332 72.2517Z" fill="black"/>
</g>
<mask id="mask16_12_572" style="mask-type:luminance" maskUnits="userSpaceOnUse" x="9" y="0" width="177" height="177">
<path d="M9.21736 88.442C9.21736 137.158 48.7093 176.651 97.4257 176.651C146.142 176.651 185.635 137.158 185.635 88.442C185.635 39.7256 146.142 0.232388 97.4257 0.232388C48.7093 0.232388 9.21736 39.7256 9.21736 88.442Z" fill="white"/>
</mask>
<g mask="url(#mask16_12_572)">
<path d="M98.1905 77.2119L98.5278 77.2352L98.3029 80.606L97.9656 80.584L98.1905 77.2119Z" fill="black"/>
</g>
<mask id="mask17_12_572" style="mask-type:luminance" maskUnits="userSpaceOnUse" x="9" y="0" width="177" height="177">
<path d="M9.21736 88.442C9.21736 137.158 48.7093 176.651 97.4257 176.651C146.142 176.651 185.635 137.158 185.635 88.442C185.635 39.7256 146.142 0.232388 97.4257 0.232388C48.7093 0.232388 9.21736 39.7256 9.21736 88.442Z" fill="white"/>
</mask>
<g mask="url(#mask17_12_572)">
<path d="M97.8252 82.165L98.1613 82.2025L97.7839 85.5591L97.4478 85.5216L97.8252 82.165Z" fill="black"/>
</g>
<mask id="mask18_12_572" style="mask-type:luminance" maskUnits="userSpaceOnUse" x="9" y="0" width="177" height="177">
<path d="M9.21736 88.442C9.21736 137.158 48.7093 176.651 97.4257 176.651C146.142 176.651 185.635 137.158 185.635 88.442C185.635 39.7256 146.142 0.232388 97.4257 0.232388C48.7093 0.232388 9.21736 39.7256 9.21736 88.442Z" fill="white"/>
</mask>
<g mask="url(#mask18_12_572)">
<path d="M97.2357 87.0916L97.5692 87.1446L97.0393 90.4805L96.7058 90.4288L97.2357 87.0916Z" fill="black"/>
</g>
<mask id="mask19_12_572" style="mask-type:luminance" maskUnits="userSpaceOnUse" x="9" y="0" width="177" height="177">
<path d="M9.21736 88.442C9.21736 137.158 48.7093 176.651 97.4257 176.651C146.142 176.651 185.635 137.158 185.635 88.442C185.635 39.7256 146.142 0.232388 97.4257 0.232388C48.7093 0.232388 9.21736 39.7256 9.21736 88.442Z" fill="white"/>
</mask>
<g mask="url(#mask19_12_572)">
<path d="M96.4213 91.9917L96.7522 92.0602L96.0672 95.3677L95.7363 95.2992L96.4213 91.9917Z" fill="black"/>
</g>
<mask id="mask20_12_572" style="mask-type:luminance" maskUnits="userSpaceOnUse" x="9" y="0" width="177" height="177">
<path d="M9.21736 88.442C9.21736 137.158 48.7093 176.651 97.4257 176.651C146.142 176.651 185.635 137.158 185.635 88.442C185.635 39.7256 146.142 0.232388 97.4257 0.232388C48.7093 0.232388 9.21736 39.7256 9.21736 88.442Z" fill="white"/>
</mask>
<g mask="url(#mask20_12_572)">
<path d="M95.3787 96.85L95.7057 96.934L94.8681 100.207L94.5411 100.123L95.3787 96.85Z" fill="black"/>
</g>
<mask id="mask21_12_572" style="mask-type:luminance" maskUnits="userSpaceOnUse" x="9" y="0" width="177" height="177">
<path d="M9.21736 88.442C9.21736 137.158 48.7093 176.651 97.4257 176.651C146.142 176.651 185.635 137.158 185.635 88.442C185.635 39.7256 146.142 0.232388 97.4257 0.232388C48.7093 0.232388 9.21736 39.7256 9.21736 88.442Z" fill="white"/>
</mask>
<g mask="url(#mask21_12_572)">
<path d="M94.1095 101.658L94.4326 101.757L93.4413 104.986L93.1181 104.886L94.1095 101.658Z" fill="black"/>
</g>
<mask id="mask22_12_572" style="mask-type:luminance" maskUnits="userSpaceOnUse" x="9" y="0" width="177" height="177">
<path d="M9.21736 88.442C9.21736 137.158 48.7093 176.651 97.4257 176.651C146.142 176.651 185.635 137.158 185.635 88.442C185.635 39.7256 146.142 0.232388 97.4257 0.232388C48.7093 0.232388 9.21736 39.7256 9.21736 88.442Z" fill="white"/>
</mask>
<g mask="url(#mask22_12_572)">
<path d="M92.6161 106.397L92.9341 106.51L91.7915 109.69L91.4736 109.576L92.6161 106.397Z" fill="black"/>
</g>
<mask id="mask23_12_572" style="mask-type:luminance" maskUnits="userSpaceOnUse" x="9" y="0" width="177" height="177">
<path d="M9.21736 88.442C9.21736 137.158 48.7093 176.651 97.4257 176.651C146.142 176.651 185.635 137.158 185.635 88.442C185.635 39.7256 146.142 0.232388 97.4257 0.232388C48.7093 0.232388 9.21736 39.7256 9.21736 88.442Z" fill="white"/>
</mask>
<g mask="url(#mask23_12_572)">
<path d="M90.8997 111.06L91.2125 111.189L89.9187 114.311L89.6072 114.181L90.8997 111.06Z" fill="black"/>
</g>
<mask id="mask24_12_572" style="mask-type:luminance" maskUnits="userSpaceOnUse" x="9" y="0" width="177" height="177">
<path d="M9.21736 88.442C9.21736 137.158 48.7093 176.651 97.4257 176.651C146.142 176.651 185.635 137.158 185.635 88.442C185.635 39.7256 146.142 0.232388 97.4257 0.232388C48.7093 0.232388 9.21736 39.7256 9.21736 88.442Z" fill="white"/>
</mask>
<g mask="url(#mask24_12_572)">
<path d="M96.1546 78.395L96.0628 78.7207L92.8109 77.803L92.9027 77.4773L96.1546 78.395Z" fill="black"/>
</g>
<mask id="mask25_12_572" style="mask-type:luminance" maskUnits="userSpaceOnUse" x="9" y="0" width="177" height="177">
<path d="M9.21736 88.442C9.21736 137.158 48.7093 176.651 97.4257 176.651C146.142 176.651 185.635 137.158 185.635 88.442C185.635 39.7256 146.142 0.232388 97.4257 0.232388C48.7093 0.232388 9.21736 39.7256 9.21736 88.442Z" fill="white"/>
</mask>
<g mask="url(#mask25_12_572)">
<path d="M91.1199 76.8431L90.9855 77.1533L87.8861 75.8066L88.0206 75.4964L91.1199 76.8431Z" fill="black"/>
</g>
<mask id="mask26_12_572" style="mask-type:luminance" maskUnits="userSpaceOnUse" x="9" y="0" width="177" height="177">
<path d="M9.21736 88.442C9.21736 137.158 48.7093 176.651 97.4257 176.651C146.142 176.651 185.635 137.158 185.635 88.442C185.635 39.7256 146.142 0.232388 97.4257 0.232388C48.7093 0.232388 9.21736 39.7256 9.21736 88.442Z" fill="white"/>
</mask>
<g mask="url(#mask26_12_572)">
<path d="M86.3296 74.6195L86.1538 74.9077L83.2703 73.1448L83.4474 72.8565L86.3296 74.6195Z" fill="black"/>
</g>
<mask id="mask27_12_572" style="mask-type:luminance" maskUnits="userSpaceOnUse" x="9" y="0" width="177" height="177">
<path d="M9.21736 88.442C9.21736 137.158 48.7093 176.651 97.4257 176.651C146.142 176.651 185.635 137.158 185.635 88.442C185.635 39.7256 146.142 0.232388 97.4257 0.232388C48.7093 0.232388 9.21736 39.7256 9.21736 88.442Z" fill="white"/>
</mask>
<g mask="url(#mask27_12_572)">
<path d="M81.8805 71.7373L81.6646 71.9971L79.0641 69.8399L79.28 69.5801L81.8805 71.7373Z" fill="black"/>
</g>
<mask id="mask28_12_572" style="mask-type:luminance" maskUnits="userSpaceOnUse" x="9" y="0" width="177" height="177">
<path d="M9.21736 88.442C9.21736 137.158 48.7093 176.651 97.4257 176.651C146.142 176.651 185.635 137.158 185.635 88.442C185.635 39.7256 146.142 0.232388 97.4257 0.232388C48.7093 0.232388 9.21736 39.7256 9.21736 88.442Z" fill="white"/>
</mask>
<g mask="url(#mask28_12_572)">
<path d="M77.8957 68.2499L77.645 68.4761L75.3806 65.9687L75.6313 65.7425L77.8957 68.2499Z" fill="black"/>
</g>
<mask id="mask29_12_572" style="mask-type:luminance" maskUnits="userSpaceOnUse" x="9" y="0" width="177" height="177">
<path d="M9.21736 88.442C9.21736 137.158 48.7093 176.651 97.4257 176.651C146.142 176.651 185.635 137.158 185.635 88.442C185.635 39.7256 146.142 0.232388 97.4257 0.232388C48.7093 0.232388 9.21736 39.7256 9.21736 88.442Z" fill="white"/>
</mask>
<g mask="url(#mask29_12_572)">
<path d="M74.4608 64.2421L74.1816 64.4321L72.2856 61.6352L72.566 61.4465L74.4608 64.2421Z" fill="black"/>
</g>
<mask id="mask30_12_572" style="mask-type:luminance" maskUnits="userSpaceOnUse" x="9" y="0" width="177" height="177">
<path d="M9.21736 88.442C9.21736 137.158 48.7093 176.651 97.4257 176.651C146.142 176.651 185.635 137.158 185.635 88.442C185.635 39.7256 146.142 0.232388 97.4257 0.232388C48.7093 0.232388 9.21736 39.7256 9.21736 88.442Z" fill="white"/>
</mask>
<g mask="url(#mask30_12_572)">
<path d="M71.6206 59.8319L71.3194 59.9844L69.793 56.9703L70.0941 56.8165L71.6206 59.8319Z" fill="black"/>
</g>
<mask id="mask31_12_572" style="mask-type:luminance" maskUnits="userSpaceOnUse" x="9" y="0" width="177" height="177">
<path d="M9.21736 88.442C9.21736 137.158 48.7093 176.651 97.4257 176.651C146.142 176.651 185.635 137.158 185.635 88.442C185.635 39.7256 146.142 0.232388 97.4257 0.232388C48.7093 0.232388 9.21736 39.7256 9.21736 88.442Z" fill="white"/>
</mask>
<g mask="url(#mask31_12_572)">
<path d="M69.3727 55.1465L69.056 55.2642L67.8824 52.0963L68.1991 51.9787L69.3727 55.1465Z" fill="black"/>
</g>
<mask id="mask32_12_572" style="mask-type:luminance" maskUnits="userSpaceOnUse" x="9" y="0" width="177" height="177">
<path d="M9.21736 88.442C9.21736 137.158 48.7093 176.651 97.4257 176.651C146.142 176.651 185.635 137.158 185.635 88.442C185.635 39.7256 146.142 0.232388 97.4257 0.232388C48.7093 0.232388 9.21736 39.7256 9.21736 88.442Z" fill="white"/>
</mask>
<g mask="url(#mask32_12_572)">
<path d="M67.6723 50.2912L67.3453 50.3765L66.4897 47.1078L66.8167 47.0225L67.6723 50.2912Z" fill="black"/>
</g>
<mask id="mask33_12_572" style="mask-type:luminance" maskUnits="userSpaceOnUse" x="9" y="0" width="177" height="177">
<path d="M9.21736 88.442C9.21736 137.158 48.7093 176.651 97.4257 176.651C146.142 176.651 185.635 137.158 185.635 88.442C185.635 39.7256 146.142 0.232388 97.4257 0.232388C48.7093 0.232388 9.21736 39.7256 9.21736 88.442Z" fill="white"/>
</mask>
<g mask="url(#mask33_12_572)">
<path d="M66.4561 45.3398L66.1226 45.3979L65.5474 42.0698L65.8809 42.0116L66.4561 45.3398Z" fill="black"/>
</g>
<mask id="mask34_12_572" style="mask-type:luminance" maskUnits="userSpaceOnUse" x="9" y="0" width="177" height="177">
<path d="M9.21736 88.442C9.21736 137.158 48.7093 176.651 97.4257 176.651C146.142 176.651 185.635 137.158 185.635 88.442C185.635 39.7256 146.142 0.232388 97.4257 0.232388C48.7093 0.232388 9.21736 39.7256 9.21736 88.442Z" fill="white"/>
</mask>
<g mask="url(#mask34_12_572)">
<path d="M65.6594 40.3487L65.3233 40.3823L64.9911 37.0206L65.3272 36.9883L65.6594 40.3487Z" fill="black"/>
</g>
<mask id="mask35_12_572" style="mask-type:luminance" maskUnits="userSpaceOnUse" x="9" y="0" width="177" height="177">
<path d="M9.21736 88.442C9.21736 137.158 48.7093 176.651 97.4257 176.651C146.142 176.651 185.635 137.158 185.635 88.442C185.635 39.7256 146.142 0.232388 97.4257 0.232388C48.7093 0.232388 9.21736 39.7256 9.21736 88.442Z" fill="white"/>
</mask>
<g mask="url(#mask35_12_572)">
<path d="M95.6245 85.8687L95.6193 86.2061L92.2421 86.1569L92.2473 85.8196L95.6245 85.8687Z" fill="black"/>
</g>
<mask id="mask36_12_572" style="mask-type:luminance" maskUnits="userSpaceOnUse" x="9" y="0" width="177" height="177">
<path d="M9.21736 88.442C9.21736 137.158 48.7093 176.651 97.4257 176.651C146.142 176.651 185.635 137.158 185.635 88.442C185.635 39.7256 146.142 0.232388 97.4257 0.232388C48.7093 0.232388 9.21736 39.7256 9.21736 88.442Z" fill="white"/>
</mask>
<g mask="url(#mask36_12_572)">
<path d="M90.9456 85.8544L90.9675 86.1918L87.5954 86.4141L87.5735 86.0767L90.9456 85.8544Z" fill="black"/>
</g>
<mask id="mask37_12_572" style="mask-type:luminance" maskUnits="userSpaceOnUse" x="9" y="0" width="177" height="177">
<path d="M9.21736 88.442C9.21736 137.158 48.7093 176.651 97.4257 176.651C146.142 176.651 185.635 137.158 185.635 88.442C185.635 39.7256 146.142 0.232388 97.4257 0.232388C48.7093 0.232388 9.21736 39.7256 9.21736 88.442Z" fill="white"/>
</mask>
<g mask="url(#mask37_12_572)">
<path d="M86.2865 86.215L86.337 86.5498L82.9959 87.0513L82.9455 86.7165L86.2865 86.215Z" fill="black"/>
</g>
<mask id="mask38_12_572" style="mask-type:luminance" maskUnits="userSpaceOnUse" x="9" y="0" width="177" height="177">
<path d="M9.21736 88.442C9.21736 137.158 48.7093 176.651 97.4257 176.651C146.142 176.651 185.635 137.158 185.635 88.442C185.635 39.7256 146.142 0.232388 97.4257 0.232388C48.7093 0.232388 9.21736 39.7256 9.21736 88.442Z" fill="white"/>
</mask>
<g mask="url(#mask38_12_572)">
<path d="M81.6818 86.9603L81.7619 87.2886L78.4777 88.0835L78.3989 87.7552L81.6818 86.9603Z" fill="black"/>
</g>
<mask id="mask39_12_572" style="mask-type:luminance" maskUnits="userSpaceOnUse" x="9" y="0" width="177" height="177">
<path d="M9.21736 88.442C9.21736 137.158 48.7093 176.651 97.4257 176.651C146.142 176.651 185.635 137.158 185.635 88.442C185.635 39.7256 146.142 0.232388 97.4257 0.232388C48.7093 0.232388 9.21736 39.7256 9.21736 88.442Z" fill="white"/>
</mask>
<g mask="url(#mask39_12_572)">
<path d="M77.167 88.1133L77.2769 88.4325L74.0845 89.5376L73.9733 89.2184L77.167 88.1133Z" fill="black"/>
</g>
<mask id="mask40_12_572" style="mask-type:luminance" maskUnits="userSpaceOnUse" x="9" y="0" width="177" height="177">
<path d="M9.21736 88.442C9.21736 137.158 48.7093 176.651 97.4257 176.651C146.142 176.651 185.635 137.158 185.635 88.442C185.635 39.7256 146.142 0.232388 97.4257 0.232388C48.7093 0.232388 9.21736 39.7256 9.21736 88.442Z" fill="white"/>
</mask>
<g mask="url(#mask40_12_572)">
<path d="M72.7993 89.6911L72.9428 89.9974L69.8822 91.4282L69.7387 91.1219L72.7993 89.6911Z" fill="black"/>
</g>
<mask id="mask41_12_572" style="mask-type:luminance" maskUnits="userSpaceOnUse" x="9" y="0" width="177" height="177">
<path d="M9.21736 88.442C9.21736 137.158 48.7093 176.651 97.4257 176.651C146.142 176.651 185.635 137.158 185.635 88.442C185.635 39.7256 146.142 0.232388 97.4257 0.232388C48.7093 0.232388 9.21736 39.7256 9.21736 88.442Z" fill="white"/>
</mask>
<g mask="url(#mask41_12_572)">
<path d="M68.6332 91.7115L68.809 91.9997L65.9255 93.7588L65.7497 93.4706L68.6332 91.7115Z" fill="black"/>
</g>
<mask id="mask42_12_572" style="mask-type:luminance" maskUnits="userSpaceOnUse" x="9" y="0" width="177" height="177">
<path d="M9.21736 88.442C9.21736 137.158 48.7093 176.651 97.4257 176.651C146.142 176.651 185.635 137.158 185.635 88.442C185.635 39.7256 146.142 0.232388 97.4257 0.232388C48.7093 0.232388 9.21736 39.7256 9.21736 88.442Z" fill="white"/>
</mask>
<g mask="url(#mask42_12_572)">
<path d="M64.7271 94.1773L64.9352 94.4435L62.274 96.5244L62.0659 96.2582L64.7271 94.1773Z" fill="black"/>
</g>
<mask id="mask43_12_572" style="mask-type:luminance" maskUnits="userSpaceOnUse" x="9" y="0" width="177" height="177">
<path d="M9.21736 88.442C9.21736 137.158 48.7093 176.651 97.4257 176.651C146.142 176.651 185.635 137.158 185.635 88.442C185.635 39.7256 146.142 0.232388 97.4257 0.232388C48.7093 0.232388 9.21736 39.7256 9.21736 88.442Z" fill="white"/>
</mask>
<g mask="url(#mask43_12_572)">
<path d="M62.0346 36.0414L62.3577 35.9405L63.3659 39.1653L63.0427 39.2661L62.0346 36.0414Z" fill="black"/>
</g>
<mask id="mask44_12_572" style="mask-type:luminance" maskUnits="userSpaceOnUse" x="9" y="0" width="177" height="177">
<path d="M9.21736 88.442C9.21736 137.158 48.7093 176.651 97.4257 176.651C146.142 176.651 185.635 137.158 185.635 88.442C185.635 39.7256 146.142 0.232388 97.4257 0.232388C48.7093 0.232388 9.21736 39.7256 9.21736 88.442Z" fill="white"/>
</mask>
<g mask="url(#mask44_12_572)">
<path d="M63.4447 40.6225L63.7704 40.532L64.6777 43.7852L64.352 43.877L63.4447 40.6225Z" fill="black"/>
</g>
<mask id="mask45_12_572" style="mask-type:luminance" maskUnits="userSpaceOnUse" x="9" y="0" width="177" height="177">
<path d="M9.21736 88.442C9.21736 137.158 48.7093 176.651 97.4257 176.651C146.142 176.651 185.635 137.158 185.635 88.442C185.635 39.7256 146.142 0.232388 97.4257 0.232388C48.7093 0.232388 9.21736 39.7256 9.21736 88.442Z" fill="white"/>
</mask>
<g mask="url(#mask45_12_572)">
<path d="M64.7101 45.2436L65.0384 45.1635L65.8411 48.4438L65.5128 48.5239L64.7101 45.2436Z" fill="black"/>
</g>
<mask id="mask46_12_572" style="mask-type:luminance" maskUnits="userSpaceOnUse" x="9" y="0" width="177" height="177">
<path d="M9.21736 88.442C9.21736 137.158 48.7093 176.651 97.4257 176.651C146.142 176.651 185.635 137.158 185.635 88.442C185.635 39.7256 146.142 0.232388 97.4257 0.232388C48.7093 0.232388 9.21736 39.7256 9.21736 88.442Z" fill="white"/>
</mask>
<g mask="url(#mask46_12_572)">
<path d="M65.8271 49.903L66.158 49.8345L66.8482 53.1419L66.5173 53.2104L65.8271 49.903Z" fill="black"/>
</g>
<mask id="mask47_12_572" style="mask-type:luminance" maskUnits="userSpaceOnUse" x="9" y="0" width="177" height="177">
<path d="M9.21736 88.442C9.21736 137.158 48.7093 176.651 97.4257 176.651C146.142 176.651 185.635 137.158 185.635 88.442C185.635 39.7256 146.142 0.232388 97.4257 0.232388C48.7093 0.232388 9.21736 39.7256 9.21736 88.442Z" fill="white"/>
</mask>
<g mask="url(#mask47_12_572)">
<path d="M66.7798 54.5924L67.1133 54.5356L67.6781 57.8663L67.3446 57.9219L66.7798 54.5924Z" fill="black"/>
</g>
<mask id="mask48_12_572" style="mask-type:luminance" maskUnits="userSpaceOnUse" x="9" y="0" width="177" height="177">
<path d="M9.21736 88.442C9.21736 137.158 48.7093 176.651 97.4257 176.651C146.142 176.651 185.635 137.158 185.635 88.442C185.635 39.7256 146.142 0.232388 97.4257 0.232388C48.7093 0.232388 9.21736 39.7256 9.21736 88.442Z" fill="white"/>
</mask>
<g mask="url(#mask48_12_572)">
<path d="M67.565 59.4066L67.901 59.3639L68.3211 62.7179L67.9864 62.7593L67.565 59.4066Z" fill="black"/>
</g>
<mask id="mask49_12_572" style="mask-type:luminance" maskUnits="userSpaceOnUse" x="9" y="0" width="177" height="177">
<path d="M9.21736 88.442C9.21736 137.158 48.7093 176.651 97.4257 176.651C146.142 176.651 185.635 137.158 185.635 88.442C185.635 39.7256 146.142 0.232388 97.4257 0.232388C48.7093 0.232388 9.21736 39.7256 9.21736 88.442Z" fill="white"/>
</mask>
<g mask="url(#mask49_12_572)">
<path d="M68.1474 64.3522L68.4847 64.3276L68.7342 67.6971L68.3968 67.7217L68.1474 64.3522Z" fill="black"/>
</g>
<mask id="mask50_12_572" style="mask-type:luminance" maskUnits="userSpaceOnUse" x="9" y="0" width="177" height="177">
<path d="M9.21736 88.442C9.21736 137.158 48.7093 176.651 97.4257 176.651C146.142 176.651 185.635 137.158 185.635 88.442C185.635 39.7256 146.142 0.232388 97.4257 0.232388C48.7093 0.232388 9.21736 39.7256 9.21736 88.442Z" fill="white"/>
</mask>
<g mask="url(#mask50_12_572)">
<path d="M68.474 69.3532L68.8114 69.348L68.8618 72.7253L68.5231 72.7305L68.474 69.3532Z" fill="black"/>
</g>
<mask id="mask51_12_572" style="mask-type:luminance" maskUnits="userSpaceOnUse" x="9" y="0" width="177" height="177">
<path d="M9.21736 88.442C9.21736 137.158 48.7093 176.651 97.4257 176.651C146.142 176.651 185.635 137.158 185.635 88.442C185.635 39.7256 146.142 0.232388 97.4257 0.232388C48.7093 0.232388 9.21736 39.7256 9.21736 88.442Z" fill="white"/>
</mask>
<g mask="url(#mask51_12_572)">
<path d="M68.493 74.407L68.8304 74.4264L68.6391 77.7998L68.3017 77.7804L68.493 74.407Z" fill="black"/>
</g>
<mask id="mask52_12_572" style="mask-type:luminance" maskUnits="userSpaceOnUse" x="9" y="0" width="177" height="177">
<path d="M9.21736 88.442C9.21736 137.158 48.7093 176.651 97.4257 176.651C146.142 176.651 185.635 137.158 185.635 88.442C185.635 39.7256 146.142 0.232388 97.4257 0.232388C48.7093 0.232388 9.21736 39.7256 9.21736 88.442Z" fill="white"/>
</mask>
<g mask="url(#mask52_12_572)">
<path d="M68.1347 79.4972L68.4695 79.5463L67.9822 82.8887L67.6474 82.8396L68.1347 79.4972Z" fill="black"/>
</g>
<mask id="mask53_12_572" style="mask-type:luminance" maskUnits="userSpaceOnUse" x="9" y="0" width="177" height="177">
<path d="M9.21736 88.442C9.21736 137.158 48.7093 176.651 97.4257 176.651C146.142 176.651 185.635 137.158 185.635 88.442C185.635 39.7256 146.142 0.232388 97.4257 0.232388C48.7093 0.232388 9.21736 39.7256 9.21736 88.442Z" fill="white"/>
</mask>
<g mask="url(#mask53_12_572)">
<path d="M67.3025 84.6125L67.6295 84.6965L66.7842 87.9678L66.4572 87.8825L67.3025 84.6125Z" fill="black"/>
</g>
<mask id="mask54_12_572" style="mask-type:luminance" maskUnits="userSpaceOnUse" x="9" y="0" width="177" height="177">
<path d="M9.21736 88.442C9.21736 137.158 48.7093 176.651 97.4257 176.651C146.142 176.651 185.635 137.158 185.635 88.442C185.635 39.7256 146.142 0.232388 97.4257 0.232388C48.7093 0.232388 9.21736 39.7256 9.21736 88.442Z" fill="white"/>
</mask>
<g mask="url(#mask54_12_572)">
<path d="M65.8716 89.6835L66.1844 89.8115L64.9061 92.938L64.5933 92.81L65.8716 89.6835Z" fill="black"/>
</g>
<mask id="mask55_12_572" style="mask-type:luminance" maskUnits="userSpaceOnUse" x="9" y="0" width="177" height="177">
<path d="M9.21736 88.442C9.21736 137.158 48.7093 176.651 97.4257 176.651C146.142 176.651 185.635 137.158 185.635 88.442C185.635 39.7256 146.142 0.232388 97.4257 0.232388C48.7093 0.232388 9.21736 39.7256 9.21736 88.442Z" fill="white"/>
</mask>
<g mask="url(#mask55_12_572)">
<path d="M65.5491 81.1797H62.1718V80.8424H65.5491V81.1797Z" fill="black"/>
</g>
<mask id="mask56_12_572" style="mask-type:luminance" maskUnits="userSpaceOnUse" x="9" y="0" width="177" height="177">
<path d="M9.21736 88.442C9.21736 137.158 48.7093 176.651 97.4257 176.651C146.142 176.651 185.635 137.158 185.635 88.442C185.635 39.7256 146.142 0.232388 97.4257 0.232388C48.7093 0.232388 9.21736 39.7256 9.21736 88.442Z" fill="white"/>
</mask>
<g mask="url(#mask56_12_572)">
<path d="M60.7346 81.1797H57.3573V80.8424H60.7346V81.1797Z" fill="black"/>
</g>
<mask id="mask57_12_572" style="mask-type:luminance" maskUnits="userSpaceOnUse" x="9" y="0" width="177" height="177">
<path d="M9.21736 88.442C9.21736 137.158 48.7093 176.651 97.4257 176.651C146.142 176.651 185.635 137.158 185.635 88.442C185.635 39.7256 146.142 0.232388 97.4257 0.232388C48.7093 0.232388 9.21736 39.7256 9.21736 88.442Z" fill="white"/>
</mask>
<g mask="url(#mask57_12_572)">
<path d="M55.9188 81.1797H52.5415V80.8424H55.9188V81.1797Z" fill="black"/>
</g>
<mask id="mask58_12_572" style="mask-type:luminance" maskUnits="userSpaceOnUse" x="9" y="0" width="177" height="177">
<path d="M9.21736 88.442C9.21736 137.158 48.7093 176.651 97.4257 176.651C146.142 176.651 185.635 137.158 185.635 88.442C185.635 39.7256 146.142 0.232388 97.4257 0.232388C48.7093 0.232388 9.21736 39.7256 9.21736 88.442Z" fill="white"/>
</mask>
<g mask="url(#mask58_12_572)">
<path d="M51.1146 81.1797H47.7374V80.8424H51.1146V81.1797Z" fill="black"/>
</g>
<mask id="mask59_12_572" style="mask-type:luminance" maskUnits="userSpaceOnUse" x="9" y="0" width="177" height="177">
<path d="M9.21736 88.442C9.21736 137.158 48.7093 176.651 97.4257 176.651C146.142 176.651 185.635 137.158 185.635 88.442C185.635 39.7256 146.142 0.232388 97.4257 0.232388C48.7093 0.232388 9.21736 39.7256 9.21736 88.442Z" fill="white"/>
</mask>
<g mask="url(#mask59_12_572)">
<path d="M46.2988 81.1797H42.9215V80.8424H46.2988V81.1797Z" fill="black"/>
</g>
<mask id="mask60_12_572" style="mask-type:luminance" maskUnits="userSpaceOnUse" x="9" y="0" width="177" height="177">
<path d="M9.21736 88.442C9.21736 137.158 48.7093 176.651 97.4257 176.651C146.142 176.651 185.635 137.158 185.635 88.442C185.635 39.7256 146.142 0.232388 97.4257 0.232388C48.7093 0.232388 9.21736 39.7256 9.21736 88.442Z" fill="white"/>
</mask>
<g mask="url(#mask60_12_572)">
<path d="M41.4881 81.1797H38.1109V80.8424H41.4881V81.1797Z" fill="black"/>
</g>
<mask id="mask61_12_572" style="mask-type:luminance" maskUnits="userSpaceOnUse" x="9" y="0" width="177" height="177">
<path d="M9.21736 88.442C9.21736 137.158 48.7093 176.651 97.4257 176.651C146.142 176.651 185.635 137.158 185.635 88.442C185.635 39.7256 146.142 0.232388 97.4257 0.232388C48.7093 0.232388 9.21736 39.7256 9.21736 88.442Z" fill="white"/>
</mask>
<g mask="url(#mask61_12_572)">
<path d="M36.6762 81.1797H33.299V80.8424H36.6762V81.1797Z" fill="black"/>
</g>
<mask id="mask62_12_572" style="mask-type:luminance" maskUnits="userSpaceOnUse" x="9" y="0" width="177" height="177">
<path d="M9.21736 88.442C9.21736 137.158 48.7093 176.651 97.4257 176.651C146.142 176.651 185.635 137.158 185.635 88.442C185.635 39.7256 146.142 0.232388 97.4257 0.232388C48.7093 0.232388 9.21736 39.7256 9.21736 88.442Z" fill="white"/>
</mask>
<g mask="url(#mask62_12_572)">
<path d="M31.8617 81.1797H28.4844V80.8424H31.8617V81.1797Z" fill="black"/>
</g>
<mask id="mask63_12_572" style="mask-type:luminance" maskUnits="userSpaceOnUse" x="9" y="0" width="177" height="177">
<path d="M9.21736 88.442C9.21736 137.158 48.7093 176.651 97.4257 176.651C146.142 176.651 185.635 137.158 185.635 88.442C185.635 39.7256 146.142 0.232388 97.4257 0.232388C48.7093 0.232388 9.21736 39.7256 9.21736 88.442Z" fill="white"/>
</mask>
<g mask="url(#mask63_12_572)">
<path d="M27.0485 81.1797H23.6712V80.8424H27.0485V81.1797Z" fill="black"/>
</g>
<mask id="mask64_12_572" style="mask-type:luminance" maskUnits="userSpaceOnUse" x="9" y="0" width="177" height="177">
<path d="M9.21736 88.442C9.21736 137.158 48.7093 176.651 97.4257 176.651C146.142 176.651 185.635 137.158 185.635 88.442C185.635 39.7256 146.142 0.232388 97.4257 0.232388C48.7093 0.232388 9.21736 39.7256 9.21736 88.442Z" fill="white"/>
</mask>
<g mask="url(#mask64_12_572)">
<path d="M22.2366 81.1797H18.8593V80.8424H22.2366V81.1797Z" fill="black"/>
</g>
<mask id="mask65_12_572" style="mask-type:luminance" maskUnits="userSpaceOnUse" x="9" y="0" width="177" height="177">
<path d="M9.21736 88.442C9.21736 137.158 48.7093 176.651 97.4257 176.651C146.142 176.651 185.635 137.158 185.635 88.442C185.635 39.7256 146.142 0.232388 97.4257 0.232388C48.7093 0.232388 9.21736 39.7256 9.21736 88.442Z" fill="white"/>
</mask>
<g mask="url(#mask65_12_572)">
<path d="M17.4285 81.1797H14.0512V80.8424H17.4285V81.1797Z" fill="black"/>
</g>
<mask id="mask66_12_572" style="mask-type:luminance" maskUnits="userSpaceOnUse" x="9" y="0" width="177" height="177">
<path d="M9.21736 88.442C9.21736 137.158 48.7093 176.651 97.4257 176.651C146.142 176.651 185.635 137.158 185.635 88.442C185.635 39.7256 146.142 0.232388 97.4257 0.232388C48.7093 0.232388 9.21736 39.7256 9.21736 88.442Z" fill="white"/>
</mask>
<g mask="url(#mask66_12_572)">
<path d="M12.6166 81.1797H9.2393V80.8424H12.6166V81.1797Z" fill="black"/>
</g>
<mask id="mask67_12_572" style="mask-type:luminance" maskUnits="userSpaceOnUse" x="9" y="0" width="177" height="177">
<path d="M9.21736 88.442C9.21736 137.158 48.7093 176.651 97.4257 176.651C146.142 176.651 185.635 137.158 185.635 88.442C185.635 39.7256 146.142 0.232388 97.4257 0.232388C48.7093 0.232388 9.21736 39.7256 9.21736 88.442Z" fill="white"/>
</mask>
<g mask="url(#mask67_12_572)">
<path d="M79.9331 128.135L79.8658 127.856L82.9187 127.12L82.9859 127.399L79.9331 128.135Z" fill="black"/>
</g>
<mask id="mask68_12_572" style="mask-type:luminance" maskUnits="userSpaceOnUse" x="9" y="0" width="177" height="177">
<path d="M9.21736 88.442C9.21736 137.158 48.7093 176.651 97.4257 176.651C146.142 176.651 185.635 137.158 185.635 88.442C185.635 39.7256 146.142 0.232388 97.4257 0.232388C48.7093 0.232388 9.21736 39.7256 9.21736 88.442Z" fill="white"/>
</mask>
<g mask="url(#mask68_12_572)">
<path d="M75.8213 129.124L75.7541 128.845L78.8069 128.109L78.8741 128.39L75.8213 129.124Z" fill="black"/>
</g>
<mask id="mask69_12_572" style="mask-type:luminance" maskUnits="userSpaceOnUse" x="9" y="0" width="177" height="177">
<path d="M9.21736 88.442C9.21736 137.158 48.7093 176.651 97.4257 176.651C146.142 176.651 185.635 137.158 185.635 88.442C185.635 39.7256 146.142 0.232388 97.4257 0.232388C48.7093 0.232388 9.21736 39.7256 9.21736 88.442Z" fill="white"/>
</mask>
<g mask="url(#mask69_12_572)">
<path d="M71.7093 130.114L71.6421 129.835L74.695 129.1L74.7622 129.379L71.7093 130.114Z" fill="black"/>
</g>
<mask id="mask70_12_572" style="mask-type:luminance" maskUnits="userSpaceOnUse" x="9" y="0" width="177" height="177">
<path d="M9.21736 88.442C9.21736 137.158 48.7093 176.651 97.4257 176.651C146.142 176.651 185.635 137.158 185.635 88.442C185.635 39.7256 146.142 0.232388 97.4257 0.232388C48.7093 0.232388 9.21736 39.7256 9.21736 88.442Z" fill="white"/>
</mask>
<g mask="url(#mask70_12_572)">
<path d="M76.9261 139.2L76.9338 138.913L80.0733 139.001L80.0655 139.288L76.9261 139.2Z" fill="black"/>
</g>
<mask id="mask71_12_572" style="mask-type:luminance" maskUnits="userSpaceOnUse" x="9" y="0" width="177" height="177">
<path d="M9.21736 88.442C9.21736 137.158 48.7093 176.651 97.4257 176.651C146.142 176.651 185.635 137.158 185.635 88.442C185.635 39.7256 146.142 0.232388 97.4257 0.232388C48.7093 0.232388 9.21736 39.7256 9.21736 88.442Z" fill="white"/>
</mask>
<g mask="url(#mask71_12_572)">
<path d="M72.6984 139.082L72.7061 138.793L75.8456 138.883L75.8378 139.169L72.6984 139.082Z" fill="black"/>
</g>
<mask id="mask72_12_572" style="mask-type:luminance" maskUnits="userSpaceOnUse" x="9" y="0" width="177" height="177">
<path d="M9.21736 88.442C9.21736 137.158 48.7093 176.651 97.4257 176.651C146.142 176.651 185.635 137.158 185.635 88.442C185.635 39.7256 146.142 0.232388 97.4257 0.232388C48.7093 0.232388 9.21736 39.7256 9.21736 88.442Z" fill="white"/>
</mask>
<g mask="url(#mask72_12_572)">
<path d="M68.4705 138.962L68.4783 138.675L71.6177 138.763L71.61 139.05L68.4705 138.962Z" fill="black"/>
</g>
<path fill-rule="evenodd" clip-rule="evenodd" d="M88.9314 176.591C137.632 176.591 177.111 137.112 177.111 88.4116C177.111 39.7116 137.632 0.232422 88.9314 0.232422C40.2314 0.232422 0.752151 39.7116 0.752151 88.4116C0.752151 137.112 40.2314 176.591 88.9314 176.591ZM88.9315 168.923C133.397 168.923 169.443 132.877 169.443 88.412C169.443 43.9468 133.397 7.90062 88.9315 7.90062C44.4662 7.90062 8.41993 43.9468 8.41993 88.412C8.41993 132.877 44.4662 168.923 88.9315 168.923Z" fill="black"/>
</svg>
