<svg width="52" height="36" viewBox="0 0 52 36" fill="none" xmlns="http://www.w3.org/2000/svg">
<g clip-path="url(#clip0_6_117)">
<mask id="mask0_6_117" style="mask-type:luminance" maskUnits="userSpaceOnUse" x="-416" y="-2153" width="1940" height="2363">
<path d="M-415.954 -2152.44H1523.16V209.865H-415.954V-2152.44Z" fill="white"/>
</mask>
<g mask="url(#mask0_6_117)">
<path d="M20.9093 25.5529V10.1863L34.2133 17.8929L20.9093 25.5529ZM50.5427 5.56095C49.952 3.37161 48.2347 1.64495 46.044 1.05428C42.0467 -0.000383951 26.044 -0.000384428 26.044 -0.000384428C26.044 -0.000384428 10.0507 -0.000383951 6.052 1.05428C3.86133 1.64495 2.13467 3.37161 1.544 5.56095C0.5 9.55961 0.5 17.8476 0.5 17.8476C0.5 17.8476 0.5 26.1889 1.544 30.1423C2.13467 32.3316 3.86133 34.0583 6.052 34.6489C10.0507 35.7036 26.044 35.7036 26.044 35.7036C26.044 35.7036 42.0467 35.7036 46.044 34.6489C48.2347 34.0583 49.952 32.3316 50.5427 30.1423C51.5973 26.1436 51.5973 17.8476 51.5973 17.8476C51.5973 17.8476 51.5973 9.55961 50.5427 5.56095Z" fill="white"/>
</g>
</g>
<defs>
<clipPath id="clip0_6_117">
<rect width="51.0974" height="35.7041" fill="white" transform="translate(0.5)"/>
</clipPath>
</defs>
</svg>
